<svg width="355" height="64" viewBox="0 0 355 64" fill="none" xmlns="http://www.w3.org/2000/svg">
<path d="M80.6537 48.581C76.4315 44.8481 74.3204 39.3306 74.3204 32.0426C74.3204 24.7546 76.4725 19.237 80.7835 15.5041C85.0877 11.7712 90.9769 9.90125 98.4443 9.90125C101.546 9.90125 104.286 10.1217 106.67 10.5767C109.054 11.0247 111.336 11.7855 113.516 12.8662V24.6906C110.127 23.0197 106.281 22.1807 101.977 22.1807C98.1847 22.1807 95.3836 22.9272 93.5799 24.4204C91.7695 25.9135 90.8676 28.4519 90.8676 32.0426C90.8676 35.5124 91.7558 38.0223 93.5389 39.5723C95.3153 41.1295 98.1301 41.9045 101.983 41.9045C106.062 41.9045 109.936 40.9162 113.611 38.9466V51.3185C109.533 53.2311 104.45 54.1839 98.3624 54.1839C90.772 54.1839 84.8759 52.3139 80.6537 48.581Z" fill="#141414"/>
<path d="M117.287 32.0349C117.287 24.8038 119.269 19.3075 123.231 15.5391C127.194 11.7707 133.165 9.89355 141.152 9.89355C149.193 9.89355 155.205 11.7778 159.202 15.5391C163.192 19.3004 165.187 24.8038 165.187 32.0349C165.187 46.7958 157.173 54.1762 141.152 54.1762C125.24 54.1833 117.287 46.8029 117.287 32.0349ZM146.884 39.5718C148.059 38.0146 148.647 35.5047 148.647 32.042C148.647 28.6362 148.059 26.1405 146.884 24.5549C145.709 22.9693 143.796 22.1801 141.152 22.1801C138.569 22.1801 136.697 22.9764 135.549 24.5549C134.402 26.1405 133.828 28.6362 133.828 32.042C133.828 35.5118 134.402 38.0217 135.549 39.5718C136.697 41.1289 138.562 41.9039 141.152 41.9039C143.796 41.9039 145.702 41.1218 146.884 39.5718Z" fill="#141414"/>
<path d="M168.957 10.7894H184.117L184.547 14.0175C186.214 12.823 188.339 11.8347 190.922 11.0596C193.504 10.2846 196.175 9.89355 198.936 9.89355C204.046 9.89355 207.776 11.209 210.133 13.8397C212.49 16.4705 213.665 20.5305 213.665 26.0338V53.2874H197.473V27.7332C197.473 25.8205 197.057 24.4482 196.223 23.6092C195.39 22.7702 193.996 22.3578 192.042 22.3578C190.84 22.3578 189.603 22.6422 188.339 23.2111C187.075 23.7799 186.016 24.5122 185.148 25.4081V53.2874H168.957V10.7894Z" fill="#141414"/>
<path d="M213.712 10.7897H230.594L238.349 35.7111L246.103 10.7897H262.985L246.875 53.2877H229.815L213.712 10.7897Z" fill="#141414"/>
<path d="M268.082 49.6328C263.218 45.8359 260.943 39.2447 260.943 32.1273C260.943 25.1948 262.753 19.4853 266.887 15.5391C271.02 11.5929 277.319 9.89355 285.272 9.89355C292.589 9.89355 298.341 11.6569 302.543 15.1836C306.738 18.7103 308.842 23.5239 308.842 29.6174V37.0618H278.05C278.815 39.2731 279.786 40.8729 282.17 41.8612C284.554 42.8496 287.881 43.3402 292.138 43.3402C294.679 43.3402 297.276 43.134 299.913 42.7145C300.842 42.5652 302.372 42.3305 303.178 42.1528V52.484C299.154 53.6216 293.791 54.1904 287.745 54.1904C279.608 54.1833 272.947 53.4296 268.082 49.6328ZM291.83 27.918C291.83 25.8134 289.501 21.2842 284.821 21.2842C280.599 21.2842 277.811 25.7423 277.811 27.918H291.83Z" fill="#141414"/>
<path d="M321.556 31.6796L306.395 10.7897H323.967L354.978 53.2877H337.235L330.342 43.7812L323.448 53.2877H305.787L321.556 31.6796Z" fill="#141414"/>
<path d="M336.845 10.7897H354.335L340.91 29.3972L332.029 17.4733L336.845 10.7897Z" fill="#141414"/>
<path d="M39.548 49.8146C48.8673 48.7977 57.6531 43.9191 62.4906 35.7764C60.1999 55.9163 37.7838 68.6461 19.4866 60.8304C17.8006 60.1122 16.3494 58.9174 15.3534 57.3813C11.2415 51.0378 9.88988 42.9662 11.832 35.6412C17.3809 45.0499 28.6637 50.8173 39.548 49.8146Z" fill="#F3B01C"/>
<path d="M11.4917 29.7315C7.71422 38.308 7.5506 48.3496 12.1818 56.6132C-4.11632 44.5662 -3.93847 18.7868 11.9826 6.86064C13.4552 5.75834 15.2052 5.10408 17.0406 5.00452C24.5886 4.61338 32.2574 7.47935 37.6356 12.8201C26.7085 12.9268 16.066 19.8037 11.4917 29.7315Z" fill="#8D2676"/>
<path d="M42.9056 15.4591C37.3923 7.90657 28.763 2.7649 19.3086 2.60844C37.5844 -5.54143 60.0645 7.67189 62.5117 27.2074C62.7394 29.0208 62.4406 30.8698 61.6225 32.5055C58.2078 39.3184 51.8763 44.6023 44.4778 46.558C49.8987 36.68 49.2299 24.6117 42.9056 15.4591Z" fill="#EE342F"/>
</svg>
