<svg width="206" height="160" viewBox="0 0 206 160" fill="none" xmlns="http://www.w3.org/2000/svg">
<path fill-rule="evenodd" clip-rule="evenodd" d="M190 5.13854V0.140261C198.553 5.93755 204.143 15.5085 205.491 29.707C206.474 40.0595 203.901 48.6604 198.606 55.8585C193.35 63.0038 185.494 68.6569 176.07 73.3431C157.574 82.5404 132.408 88.3019 107.247 94.0621L106.009 94.3455C80.2846 100.236 54.6513 106.189 35.4321 115.779C16.2725 125.34 4 138.238 4 157.896C4 159.001 3.10457 159.896 2 159.896C0.89543 159.896 0 159.001 0 157.896C0 136.054 13.8525 122.077 33.6461 112.2C53.3799 102.353 79.5279 96.3059 105.116 90.4465L106.017 90.2403L106.017 90.2403C131.443 84.4185 156.224 78.7447 174.289 69.7614C183.404 65.2289 190.646 59.9288 195.384 53.4882C200.083 47.1004 202.401 39.4825 201.509 30.085C200.389 18.2878 196.215 10.3052 190 5.13854Z" fill="#0056F1"/>
</svg>
