<svg width="243" height="220" viewBox="0 0 243 220" fill="none" xmlns="http://www.w3.org/2000/svg">
<path opacity="0.5" d="M45.1795 203.882C90.2779 225.373 163.395 225.373 208.493 203.882C253.592 182.392 253.586 147.552 208.493 126.045C163.401 104.538 90.2779 104.549 45.1795 126.045C0.0812197 147.54 0.0868492 182.387 45.1795 203.882Z" fill="#EBEBEB"/>
<path d="M191.324 163.668C208.534 163.668 222.486 157.017 222.486 148.814C222.486 140.61 208.534 133.959 191.324 133.959C174.113 133.959 160.162 140.61 160.162 148.814C160.162 157.017 174.113 163.668 191.324 163.668Z" fill="#E0E0E0"/>
<path d="M144.198 207.944C135.872 211.915 122.375 211.915 114.049 207.944C105.724 203.973 105.724 197.545 114.049 193.574C122.375 189.603 135.872 189.631 144.198 193.574C152.523 197.517 152.546 203.978 144.198 207.944Z" fill="#E0E0E0"/>
<path d="M32.2235 157.269L36.8031 154.627C36.8031 154.627 39.2197 143.851 35.6202 130.162C32.0207 116.474 21.6389 106.239 16.2256 108.385C10.8122 110.531 10.953 114.581 13.9385 118.688C16.4171 122.068 24.4555 130.292 28.3197 139.767C30.6219 145.332 31.9426 151.253 32.2235 157.269Z" fill="#0056F1"/>
<path opacity="0.1" d="M32.2235 157.269L36.8031 154.627C36.8031 154.627 39.2197 143.851 35.6202 130.162C32.0207 116.474 21.6389 106.239 16.2256 108.385C10.8122 110.531 10.953 114.581 13.9385 118.688C16.4171 122.068 24.4555 130.292 28.3197 139.767C30.6219 145.332 31.9426 151.253 32.2235 157.269Z" fill="black"/>
<path d="M34.6626 156.142H34.6231C34.5503 156.131 34.4847 156.092 34.4404 156.033C34.3962 155.974 34.3769 155.9 34.3866 155.827C37.5129 133.294 23.5485 115.077 17.1944 111.275C17.1576 111.259 17.1246 111.235 17.0976 111.206C17.0707 111.176 17.0504 111.141 17.0381 111.102C17.0258 111.064 17.0218 111.024 17.0264 110.984C17.031 110.944 17.0441 110.906 17.0647 110.871C17.0853 110.837 17.1131 110.807 17.1461 110.785C17.1791 110.762 17.2166 110.746 17.2561 110.739C17.2956 110.732 17.3362 110.733 17.3751 110.743C17.414 110.753 17.4503 110.771 17.4817 110.796C23.9316 114.649 38.11 133.109 34.9442 155.906C34.9324 155.972 34.8977 156.032 34.8462 156.075C34.7948 156.118 34.7298 156.142 34.6626 156.142Z" fill="white"/>
<path d="M32.2235 157.269L25.3624 161.212C23.9294 160.496 22.3771 160.049 20.7827 159.894C17.8648 159.528 15.9214 156.711 16.2087 154.61C16.4002 153.19 16.8565 151.574 16.6368 150.137C16.4453 148.853 15.2003 147.698 14.0399 147.248C13.0523 146.939 12.0213 146.793 10.9868 146.814C9.33632 146.735 7.60697 146.549 6.21561 145.687C4.82424 144.825 3.79902 143.102 4.24967 141.507C4.55272 140.682 5.04464 139.94 5.6861 139.339C6.32499 138.736 6.8431 138.017 7.21266 137.221C7.82103 135.632 6.74511 134.618 5.46641 133.88C0.959955 131.289 -1.06795 129.244 0.554374 127.284C2.1767 125.324 6.63245 124.467 11.2009 126.867C15.7693 129.267 19.5603 126.692 22.574 127.199C27.2945 127.988 27.5706 131.323 26.9847 134.218C26.3989 137.114 32.2404 138.347 33.6881 141.823C34.7753 144.347 35.6653 152.638 32.2235 157.269Z" fill="#0056F1"/>
<path d="M29.9364 158.869C29.8637 158.869 29.7937 158.84 29.7412 158.79C29.6887 158.74 29.6577 158.671 29.6548 158.598C29.0915 142.516 8.48009 128.489 3.61876 127.684C3.58212 127.678 3.54693 127.666 3.5152 127.647C3.48347 127.627 3.45582 127.602 3.43384 127.572C3.41187 127.543 3.39599 127.509 3.38712 127.473C3.37825 127.437 3.37657 127.399 3.38217 127.363C3.39592 127.289 3.43772 127.224 3.49872 127.181C3.55971 127.138 3.63509 127.12 3.70889 127.132C8.82934 127.977 29.6492 141.896 30.2181 158.576C30.2196 158.613 30.2138 158.65 30.201 158.684C30.1883 158.719 30.1688 158.751 30.1436 158.778C30.1185 158.805 30.0883 158.827 30.0547 158.843C30.0211 158.858 29.9847 158.867 29.9477 158.869H29.9364Z" fill="white"/>
<path d="M118.33 187.918C118.105 185.102 115.931 180.291 112.697 176.866C109.464 173.441 104.327 171.796 101.15 173.171C98.1923 174.455 98.8457 178.421 102.749 180.77C106.653 183.119 112.466 185.992 114.461 190.436L118.314 195.771L118.33 187.918Z" fill="#0056F1"/>
<path opacity="0.1" d="M118.33 187.918C118.105 185.102 115.931 180.291 112.697 176.866C109.464 173.441 104.327 171.796 101.15 173.171C98.1923 174.455 98.8457 178.421 102.749 180.77C106.653 183.119 112.466 185.992 114.461 190.436L118.314 195.771L118.33 187.918Z" fill="black"/>
<path d="M118.331 193.078H118.387C118.437 193.071 118.485 193.055 118.528 193.029C118.572 193.003 118.61 192.97 118.64 192.929C118.671 192.889 118.693 192.843 118.705 192.794C118.718 192.745 118.721 192.694 118.714 192.644C117.311 182.206 106.704 174.945 102.485 174.145C102.435 174.136 102.384 174.136 102.335 174.146C102.285 174.156 102.238 174.175 102.196 174.204C102.154 174.232 102.118 174.268 102.09 174.311C102.063 174.353 102.044 174.4 102.034 174.45C102.024 174.499 102.024 174.55 102.034 174.6C102.044 174.649 102.064 174.696 102.092 174.738C102.121 174.78 102.157 174.816 102.199 174.844C102.241 174.872 102.289 174.891 102.338 174.9C106.281 175.65 116.612 182.832 117.947 192.746C117.961 192.838 118.007 192.922 118.077 192.983C118.148 193.044 118.237 193.078 118.331 193.078Z" fill="white"/>
<path d="M117.914 199.579C117.35 198.03 115.187 195.568 111.881 193.664C108.225 191.552 103.758 190.802 102.597 189.028C101.206 186.887 102.918 184.629 106.507 184.781C110.095 184.933 116.748 189.287 118.336 196.514L117.914 199.579Z" fill="#0056F1"/>
<path d="M118.184 198.058H118.257C118.308 198.048 118.355 198.029 118.398 198.001C118.441 197.973 118.477 197.936 118.506 197.894C118.534 197.851 118.553 197.803 118.563 197.753C118.573 197.703 118.572 197.651 118.561 197.602C117.497 192.25 109.74 186.707 104.727 186.476C104.626 186.476 104.528 186.513 104.453 186.581C104.378 186.648 104.331 186.742 104.321 186.842C104.318 186.945 104.355 187.045 104.425 187.121C104.494 187.196 104.59 187.242 104.693 187.248C109.346 187.462 116.821 192.796 117.807 197.754C117.825 197.84 117.872 197.918 117.941 197.973C118.01 198.028 118.096 198.058 118.184 198.058Z" fill="white"/>
<path d="M27.3002 161.443C26.9751 161.225 26.7222 160.915 26.5737 160.553C26.4252 160.191 26.3879 159.793 26.4665 159.409L46.4413 71.004C46.6817 70.1492 47.2242 69.4106 47.9679 68.9254L166.826 0.314673C167.189 0.122484 167.593 0.0187501 168.004 0.0118986C168.415 0.00504716 168.822 0.0952719 169.191 0.275242C169.511 0.494567 169.76 0.803429 169.905 1.16315C170.05 1.52287 170.086 1.91746 170.008 2.29751L150.028 90.7029C149.787 91.559 149.242 92.298 148.496 92.7815L29.6661 161.392C29.3035 161.586 28.9003 161.692 28.4892 161.701C28.0781 161.709 27.6707 161.621 27.3002 161.443Z" fill="#F0F0F0"/>
<path d="M48.7284 72.3109L28.7535 160.75C28.5845 161.505 28.9901 161.809 29.6661 161.42L148.524 92.8096C149.27 92.3262 149.815 91.5872 150.056 90.731L170.008 2.29748C170.177 1.53702 169.772 1.23846 169.096 1.62714L50.238 70.2379C49.5021 70.725 48.9662 71.4609 48.7284 72.3109Z" fill="#E6E6E6"/>
<path d="M171.456 1.58209C171.086 1.40298 170.679 1.31372 170.268 1.32155C169.857 1.32938 169.453 1.43408 169.09 1.62715L50.2324 70.2379C49.8876 70.4611 49.6104 70.7743 49.4307 71.1436C49.251 71.5129 49.1756 71.9243 49.2128 72.3334L64.8558 181.835C64.9322 182.25 65.0905 182.645 65.3217 182.998C65.5529 183.351 65.8522 183.655 66.2021 183.891C66.5709 184.071 66.9773 184.161 67.3877 184.153C67.7981 184.145 68.2008 184.04 68.5624 183.846L187.398 115.252C187.743 115.028 188.021 114.714 188.201 114.344C188.381 113.973 188.455 113.561 188.417 113.151L172.825 3.63816C172.746 3.2212 172.584 2.82432 172.349 2.47111C172.114 2.11791 171.81 1.81557 171.456 1.58209Z" fill="#F0F0F0"/>
<path d="M51.5223 73.6572L67.1428 183.158C67.1459 183.322 67.1942 183.481 67.2822 183.618C67.3703 183.756 67.4947 183.866 67.6417 183.938C67.7887 184.009 67.9525 184.038 68.115 184.022C68.2775 184.005 68.4324 183.944 68.5624 183.846L187.398 115.252C187.743 115.028 188.021 114.714 188.201 114.344C188.381 113.973 188.455 113.561 188.417 113.151L172.825 3.63816C172.823 3.47439 172.775 3.31442 172.688 3.17606C172.6 3.03771 172.476 2.92641 172.328 2.85457C172.181 2.78273 172.017 2.75318 171.854 2.76919C171.691 2.78521 171.536 2.84617 171.405 2.94529L52.5475 71.556C52.2008 71.779 51.9219 72.0928 51.7411 72.4632C51.5603 72.8337 51.4847 73.2467 51.5223 73.6572Z" fill="#FAFAFA"/>
<path d="M28.8606 160.254L59.2791 142.685L60.1635 149.05L46.216 157.105C46.216 157.105 42.4982 158.424 41.0224 158.795C39.5465 159.167 28.8606 160.254 28.8606 160.254Z" fill="#E0E0E0"/>
<path d="M60.1804 149.056L64.7432 181.052L46.2329 157.111L60.1804 149.056Z" fill="#E6E6E6"/>
<path d="M64.1968 182.116L47.6074 160.57C47.332 160.248 46.9839 159.997 46.592 159.838C46.2 159.678 45.7757 159.614 45.3541 159.652L29.8407 161.905C28.967 161.998 28.085 161.838 27.3002 161.443C26.6693 161.082 26.7763 160.665 27.5368 160.519L45.3654 157.088C45.7834 157.026 46.2106 157.072 46.6054 157.223C47.0003 157.374 47.3493 157.625 47.6186 157.95L66.5063 183.412C66.9682 184.037 66.833 184.246 66.2021 183.879C65.4417 183.405 64.7642 182.81 64.1968 182.116Z" fill="#E0E0E0"/>
<path d="M170.036 1.86374C170.034 1.54634 169.954 1.23434 169.803 0.95532C169.652 0.676296 169.434 0.438843 169.169 0.263953C168.798 0.0865899 168.391 -0.00170034 167.981 0.00612393C167.57 0.0139482 167.167 0.117671 166.803 0.309019L47.9453 68.9198C47.5829 69.1469 47.2674 69.4414 47.0159 69.7873C46.7367 70.147 46.5318 70.5587 46.4132 70.9984L43.5966 83.4869L45.8836 84.7994L167.192 14.7804L170.008 2.29749C170.035 2.15454 170.046 2.00912 170.042 1.86374H170.036Z" fill="#0056F1"/>
<path opacity="0.2" d="M170.008 2.29748C170.177 1.53702 169.772 1.23846 169.096 1.62714L50.238 70.2379C49.4957 70.7221 48.9535 71.4583 48.7115 72.3109L45.8949 84.7994L167.192 14.7804L170.008 2.29748Z" fill="black"/>
<path opacity="0.1" d="M49.3255 71.1054C49.0458 71.462 48.8426 71.8723 48.7284 72.3109L45.9118 84.7994L43.6248 83.4812L46.4413 70.9927C46.56 70.5531 46.7649 70.1414 47.0441 69.7816L49.3255 71.1054Z" fill="black"/>
<path opacity="0.4" d="M170.036 1.8581C169.98 1.43562 169.614 1.29479 169.09 1.62714L50.2324 70.2323C49.8674 70.4584 49.5514 70.7552 49.303 71.1054L47.0159 69.7816C47.2675 69.4357 47.583 69.1412 47.9454 68.9141L166.803 0.303373C167.167 0.112026 167.57 0.00830244 167.981 0.000478171C168.391 -0.0073461 168.798 0.0809463 169.169 0.258309C169.434 0.4332 169.652 0.670653 169.803 0.949677C169.954 1.2287 170.034 1.5407 170.036 1.8581Z" fill="white"/>
<path d="M172.943 4.68591L172.825 3.63816C172.816 3.5869 172.805 3.53613 172.791 3.48607C172.793 3.47114 172.793 3.45592 172.791 3.441C172.599 2.68298 172.136 2.02157 171.49 1.58209C171.12 1.40298 170.712 1.31372 170.301 1.32155C169.89 1.32938 169.487 1.43408 169.124 1.62715L50.2661 70.2379C49.9064 70.4607 49.6218 70.7865 49.4494 71.173C49.2734 71.5328 49.2031 71.9352 49.2466 72.3334L51.4998 88.0215L53.7868 89.3453L175.039 19.3319L172.943 4.68591Z" fill="#0056F1"/>
<path opacity="0.1" d="M53.7643 89.3396L51.4773 88.0159L49.224 72.3278C49.1805 71.9296 49.2509 71.5272 49.4268 71.1674L51.7195 72.4855C51.5395 72.8441 51.4671 73.2471 51.5111 73.6459L53.7643 89.3396Z" fill="black"/>
<path opacity="0.4" d="M172.757 3.441C172.725 3.29909 172.658 3.16757 172.561 3.05855C172.465 2.94953 172.342 2.86651 172.206 2.81714C172.069 2.76777 171.922 2.75363 171.778 2.77602C171.634 2.79842 171.498 2.85663 171.383 2.94529L52.525 71.556C52.1639 71.7772 51.8789 72.1035 51.7082 72.4911L49.4606 71.173C49.6345 70.7859 49.9186 70.4587 50.2774 70.2323L169.135 1.62715C169.498 1.43408 169.902 1.32938 170.313 1.32155C170.724 1.31372 171.131 1.40298 171.501 1.58209C172.132 2.02797 172.579 2.689 172.757 3.441Z" fill="white"/>
<path d="M85.3151 165.014L83.8956 155.038C83.8936 154.908 83.8559 154.781 83.7867 154.671C83.7176 154.561 83.6195 154.472 83.5033 154.414C83.3871 154.356 83.2572 154.331 83.1277 154.342C82.9982 154.352 82.8741 154.398 82.769 154.475L72.4098 160.457C72.1306 160.636 71.9065 160.888 71.7623 161.187C71.6181 161.485 71.5595 161.817 71.593 162.147L73.0069 172.146C73.0069 172.276 73.0433 172.405 73.112 172.516C73.1808 172.627 73.2791 172.717 73.3961 172.776C73.5131 172.834 73.644 172.859 73.7742 172.847C73.9045 172.835 74.0289 172.787 74.1335 172.709L84.4927 166.727C84.777 166.548 85.005 166.292 85.1505 165.989C85.296 165.686 85.3531 165.348 85.3151 165.014Z" fill="#0056F1"/>
<path d="M101.336 155.776L99.9104 145.805C99.9104 145.675 99.874 145.546 99.8052 145.435C99.7365 145.324 99.6381 145.234 99.5212 145.176C99.4042 145.117 99.2733 145.092 99.143 145.104C99.0128 145.116 98.8884 145.164 98.7838 145.242L88.4246 151.219C88.1459 151.398 87.9222 151.65 87.778 151.949C87.6339 152.247 87.575 152.579 87.6078 152.909L89.033 162.885C89.033 163.016 89.0694 163.144 89.1381 163.255C89.2069 163.366 89.3052 163.456 89.4222 163.515C89.5391 163.573 89.6701 163.598 89.8003 163.586C89.9306 163.574 90.055 163.527 90.1596 163.448L100.519 157.466C100.798 157.288 101.023 157.035 101.167 156.737C101.311 156.438 101.37 156.106 101.336 155.776Z" fill="#EBEBEB"/>
<path d="M117.356 146.538L115.931 136.567C115.931 136.436 115.894 136.308 115.826 136.197C115.757 136.086 115.659 135.996 115.542 135.937C115.425 135.879 115.294 135.854 115.163 135.866C115.033 135.878 114.909 135.925 114.804 136.004L104.439 141.992C104.161 142.171 103.937 142.423 103.793 142.722C103.649 143.02 103.59 143.352 103.623 143.682L105.048 153.658C105.048 153.789 105.084 153.917 105.153 154.028C105.222 154.139 105.32 154.229 105.437 154.288C105.554 154.346 105.685 154.371 105.815 154.359C105.945 154.347 106.07 154.3 106.174 154.221L116.534 148.239C116.816 148.061 117.043 147.807 117.188 147.506C117.334 147.205 117.392 146.87 117.356 146.538Z" fill="#EBEBEB"/>
<path d="M133.393 137.305L131.968 127.329C131.968 127.198 131.932 127.07 131.863 126.959C131.794 126.848 131.696 126.758 131.579 126.699C131.462 126.641 131.331 126.616 131.201 126.628C131.071 126.639 130.946 126.687 130.842 126.766L120.437 132.759C120.158 132.937 119.933 133.19 119.789 133.488C119.645 133.787 119.586 134.119 119.621 134.449L121.046 144.42C121.046 144.551 121.082 144.679 121.151 144.79C121.22 144.901 121.318 144.991 121.435 145.05C121.552 145.108 121.683 145.133 121.813 145.121C121.943 145.109 122.068 145.062 122.172 144.983L132.532 139.006C132.82 138.832 133.054 138.58 133.207 138.28C133.359 137.979 133.424 137.641 133.393 137.305Z" fill="#EBEBEB"/>
<path d="M149.397 128.067L147.972 118.068C147.972 117.937 147.935 117.809 147.867 117.698C147.798 117.587 147.699 117.497 147.582 117.438C147.466 117.38 147.335 117.355 147.204 117.367C147.074 117.379 146.95 117.426 146.845 117.505L136.486 123.487C136.206 123.665 135.982 123.918 135.838 124.216C135.693 124.515 135.635 124.847 135.669 125.177L137.094 135.148C137.094 135.278 137.131 135.407 137.199 135.518C137.268 135.629 137.367 135.719 137.483 135.778C137.6 135.836 137.731 135.861 137.862 135.849C137.992 135.837 138.116 135.789 138.221 135.711L148.603 129.746C148.875 129.565 149.093 129.313 149.233 129.017C149.373 128.721 149.43 128.393 149.397 128.067Z" fill="#EBEBEB"/>
<path d="M165.417 118.829L163.992 108.853C163.992 108.722 163.956 108.594 163.887 108.482C163.818 108.371 163.72 108.281 163.603 108.223C163.486 108.164 163.355 108.14 163.225 108.151C163.095 108.163 162.97 108.211 162.866 108.289L152.506 114.272C152.227 114.45 152.002 114.702 151.858 115.001C151.714 115.299 151.655 115.632 151.69 115.961L153.109 125.955C153.109 126.085 153.145 126.214 153.214 126.325C153.283 126.436 153.381 126.526 153.498 126.584C153.615 126.643 153.746 126.668 153.876 126.656C154.007 126.644 154.131 126.596 154.236 126.518L164.595 120.536C164.878 120.356 165.105 120.101 165.25 119.8C165.396 119.498 165.453 119.162 165.417 118.829Z" fill="#EBEBEB"/>
<path d="M181.438 109.619L180.013 99.6425C180.013 99.5117 179.976 99.3835 179.907 99.2723C179.839 99.1611 179.74 99.0712 179.623 99.0127C179.506 98.9542 179.376 98.9295 179.245 98.9412C179.115 98.9529 178.991 99.0007 178.886 99.0792L168.527 105.062C168.248 105.24 168.024 105.493 167.879 105.791C167.735 106.089 167.677 106.422 167.71 106.751L169.13 116.728C169.132 116.857 169.169 116.984 169.238 117.094C169.308 117.204 169.406 117.293 169.522 117.351C169.638 117.409 169.768 117.435 169.897 117.424C170.027 117.413 170.151 117.367 170.256 117.291L180.615 111.309C180.896 111.131 181.121 110.879 181.266 110.58C181.411 110.282 181.471 109.949 181.438 109.619Z" fill="#EBEBEB"/>
<path d="M82.5324 145.496L81.1072 135.531C81.1052 135.401 81.0675 135.274 80.9984 135.164C80.9292 135.054 80.8312 134.965 80.715 134.907C80.5988 134.849 80.4688 134.824 80.3393 134.834C80.2098 134.845 80.0858 134.891 79.9806 134.967L69.6214 140.95C69.3423 141.128 69.1182 141.381 68.974 141.679C68.8298 141.978 68.7711 142.31 68.8046 142.64L70.2241 152.616C70.2262 152.746 70.2638 152.873 70.333 152.983C70.4022 153.093 70.5002 153.181 70.6164 153.24C70.7326 153.298 70.8625 153.323 70.992 153.312C71.1215 153.301 71.2456 153.255 71.3508 153.179L81.71 147.197C81.9901 147.016 82.2151 146.762 82.3602 146.462C82.5053 146.162 82.5649 145.827 82.5324 145.496Z" fill="#0056F1"/>
<path d="M98.5528 136.257L97.1276 126.281C97.1256 126.151 97.088 126.024 97.0188 125.915C96.9496 125.805 96.8516 125.716 96.7354 125.658C96.6192 125.599 96.4892 125.574 96.3597 125.585C96.2303 125.596 96.1062 125.642 96.001 125.718L85.6418 131.7C85.3627 131.879 85.1386 132.131 84.9944 132.43C84.8502 132.728 84.7915 133.061 84.825 133.39L86.2446 143.366C86.2466 143.496 86.2842 143.623 86.3534 143.733C86.4226 143.843 86.5206 143.932 86.6368 143.99C86.753 144.048 86.883 144.073 87.0125 144.063C87.1419 144.052 87.266 144.006 87.3712 143.93L97.7304 137.947C98.0087 137.768 98.2325 137.515 98.3775 137.217C98.5225 136.919 98.5831 136.587 98.5528 136.257Z" fill="#EBEBEB"/>
<path d="M114.573 127.019L113.148 117.043C113.146 116.913 113.108 116.786 113.039 116.676C112.97 116.566 112.872 116.477 112.756 116.419C112.64 116.361 112.51 116.336 112.38 116.347C112.251 116.357 112.127 116.403 112.021 116.48L101.662 122.462C101.383 122.641 101.159 122.893 101.015 123.191C100.871 123.49 100.812 123.822 100.845 124.152L102.265 134.128C102.267 134.258 102.305 134.385 102.374 134.495C102.443 134.605 102.541 134.694 102.657 134.752C102.773 134.81 102.903 134.835 103.033 134.824C103.162 134.814 103.286 134.768 103.392 134.691L113.751 128.709C114.029 128.529 114.253 128.277 114.398 127.979C114.543 127.681 114.604 127.349 114.573 127.019Z" fill="#EBEBEB"/>
<path d="M130.577 117.781L129.152 107.805C129.15 107.675 129.112 107.548 129.043 107.438C128.974 107.328 128.876 107.239 128.759 107.181C128.643 107.123 128.513 107.098 128.384 107.109C128.254 107.119 128.13 107.165 128.025 107.242L117.677 113.235C117.398 113.414 117.175 113.667 117.031 113.965C116.886 114.263 116.827 114.595 116.86 114.925L118.28 124.901C118.282 125.031 118.32 125.158 118.389 125.268C118.458 125.378 118.556 125.467 118.672 125.525C118.788 125.583 118.918 125.608 119.048 125.597C119.177 125.587 119.301 125.541 119.406 125.464L129.766 119.482C130.044 119.301 130.267 119.046 130.41 118.746C130.554 118.445 130.611 118.112 130.577 117.781Z" fill="#EBEBEB"/>
<path d="M146.614 108.543L145.189 98.5722C145.189 98.4414 145.153 98.3133 145.084 98.202C145.015 98.0908 144.917 98.0009 144.8 97.9424C144.683 97.8839 144.552 97.8592 144.422 97.8709C144.291 97.8827 144.167 97.9304 144.062 98.0089L133.698 103.986C133.419 104.165 133.195 104.417 133.051 104.715C132.907 105.014 132.848 105.346 132.881 105.676L134.3 115.652C134.302 115.782 134.34 115.908 134.409 116.018C134.478 116.128 134.576 116.217 134.693 116.275C134.809 116.334 134.939 116.359 135.068 116.348C135.198 116.337 135.322 116.291 135.427 116.215L145.786 110.221C146.064 110.044 146.288 109.793 146.434 109.498C146.58 109.202 146.642 108.871 146.614 108.543Z" fill="#EBEBEB"/>
<path d="M162.635 99.3045L161.209 89.3396C161.209 89.2089 161.173 89.0807 161.104 88.9694C161.036 88.8582 160.937 88.7683 160.82 88.7098C160.703 88.6514 160.572 88.6266 160.442 88.6383C160.312 88.6501 160.187 88.6979 160.083 88.7763L149.729 94.7643C149.45 94.9424 149.225 95.1948 149.081 95.4933C148.937 95.7917 148.878 96.1245 148.912 96.4542L150.332 106.425C150.334 106.555 150.372 106.681 150.441 106.791C150.51 106.901 150.608 106.99 150.724 107.048C150.84 107.107 150.97 107.132 151.1 107.121C151.229 107.11 151.353 107.064 151.459 106.988L161.818 101.006C162.097 100.825 162.322 100.57 162.466 100.27C162.61 99.9699 162.668 99.6358 162.635 99.3045Z" fill="#EBEBEB"/>
<path d="M178.655 90.0719L177.23 80.0957C177.23 79.965 177.193 79.8368 177.125 79.7255C177.056 79.6143 176.958 79.5244 176.841 79.4659C176.724 79.4075 176.593 79.3827 176.463 79.3944C176.332 79.4062 176.208 79.454 176.103 79.5324L165.738 85.5148C165.46 85.694 165.237 85.9468 165.094 86.2451C164.951 86.5434 164.893 86.8756 164.927 87.2047L166.347 97.1752C166.349 97.3051 166.387 97.432 166.456 97.542C166.525 97.6519 166.623 97.7408 166.739 97.7989C166.855 97.857 166.985 97.8821 167.115 97.8715C167.244 97.8608 167.368 97.8148 167.473 97.7385L177.833 91.7618C178.111 91.5817 178.334 91.3291 178.479 91.0313C178.624 90.7335 178.685 90.4018 178.655 90.0719Z" fill="#EBEBEB"/>
<path d="M79.744 125.955L78.3245 115.978C78.3225 115.848 78.2848 115.722 78.2156 115.612C78.1465 115.502 78.0484 115.413 77.9322 115.355C77.816 115.297 77.6861 115.271 77.5566 115.282C77.4271 115.293 77.303 115.339 77.1979 115.415L66.8274 121.448C66.5496 121.628 66.3266 121.881 66.1826 122.179C66.0385 122.477 65.9791 122.809 66.0106 123.138L67.4358 133.109C67.4358 133.239 67.4722 133.368 67.5409 133.479C67.6097 133.59 67.7081 133.68 67.825 133.738C67.942 133.797 68.0729 133.822 68.2031 133.81C68.3334 133.798 68.4578 133.75 68.5624 133.672L78.9272 127.644C79.2059 127.465 79.4297 127.213 79.5738 126.915C79.718 126.616 79.7769 126.284 79.744 125.955Z" fill="#0056F1"/>
<path d="M95.7645 116.739L94.3449 106.763C94.3429 106.633 94.3053 106.506 94.2361 106.396C94.1669 106.286 94.0689 106.197 93.9527 106.139C93.8365 106.081 93.7065 106.056 93.577 106.066C93.4476 106.077 93.3235 106.123 93.2183 106.199L82.8591 112.182C82.5814 112.362 82.3583 112.614 82.2143 112.912C82.0703 113.21 82.0108 113.542 82.0423 113.872L83.4675 123.848C83.4695 123.978 83.5072 124.105 83.5763 124.215C83.6455 124.325 83.7435 124.413 83.8598 124.472C83.976 124.53 84.1059 124.555 84.2354 124.544C84.3649 124.533 84.489 124.487 84.5941 124.411L94.9533 118.429C95.2314 118.25 95.4544 117.997 95.5976 117.698C95.7408 117.4 95.7985 117.068 95.7645 116.739Z" fill="#EBEBEB"/>
<path d="M111.785 107.501L110.365 97.5245C110.363 97.3945 110.326 97.2677 110.256 97.1577C110.187 97.0477 110.089 96.9588 109.973 96.9007C109.857 96.8426 109.727 96.8175 109.597 96.8282C109.468 96.8388 109.344 96.8848 109.239 96.9611L98.8795 102.943C98.6022 103.124 98.3795 103.377 98.2355 103.675C98.0916 103.972 98.0318 104.304 98.0627 104.633L99.4879 114.61C99.4899 114.739 99.5276 114.866 99.5967 114.976C99.6659 115.086 99.7639 115.175 99.8801 115.233C99.9964 115.291 100.126 115.316 100.256 115.306C100.385 115.295 100.509 115.249 100.614 115.173L110.974 109.191C111.252 109.011 111.475 108.758 111.618 108.46C111.761 108.162 111.819 107.83 111.785 107.501Z" fill="#EBEBEB"/>
<path d="M127.805 98.2624L126.386 88.2863C126.384 88.1564 126.346 88.0295 126.277 87.9195C126.208 87.8095 126.11 87.7206 125.994 87.6625C125.877 87.6044 125.747 87.5793 125.618 87.59C125.488 87.6006 125.364 87.6466 125.259 87.723L114.9 93.7053C114.623 93.8857 114.4 94.1385 114.256 94.4364C114.112 94.7342 114.052 95.0658 114.083 95.3952L115.508 105.371C115.51 105.501 115.548 105.628 115.617 105.738C115.686 105.848 115.784 105.937 115.901 105.995C116.017 106.053 116.147 106.078 116.276 106.068C116.406 106.057 116.53 106.011 116.635 105.935L126.994 99.9523C127.272 99.7731 127.495 99.5202 127.638 99.222C127.782 98.9237 127.839 98.5915 127.805 98.2624Z" fill="#EBEBEB"/>
<path d="M143.826 89.0242L142.406 79.048C142.404 78.9181 142.367 78.7912 142.297 78.6812C142.228 78.5713 142.13 78.4824 142.014 78.4243C141.898 78.3662 141.768 78.3411 141.638 78.3517C141.509 78.3624 141.385 78.4084 141.28 78.4847L130.92 84.467C130.643 84.6474 130.42 84.9002 130.276 85.1981C130.132 85.496 130.073 85.8276 130.104 86.1569L131.529 96.1331C131.531 96.263 131.568 96.3899 131.638 96.4999C131.707 96.6098 131.805 96.6987 131.921 96.7568C132.037 96.8149 132.167 96.84 132.297 96.8294C132.426 96.8187 132.55 96.7727 132.655 96.6964L143.015 90.7141C143.293 90.5348 143.516 90.282 143.659 89.9837C143.802 89.6854 143.86 89.3533 143.826 89.0242Z" fill="#EBEBEB"/>
<path d="M159.869 79.7634L158.449 69.7873C158.447 69.6573 158.41 69.5305 158.34 69.4205C158.271 69.3105 158.173 69.2216 158.057 69.1635C157.941 69.1054 157.811 69.0803 157.681 69.091C157.552 69.1016 157.428 69.1476 157.323 69.224L146.913 75.257C146.635 75.4374 146.413 75.6902 146.269 75.9881C146.125 76.2859 146.065 76.6175 146.096 76.9469L147.521 86.9231C147.523 87.053 147.561 87.1798 147.63 87.2898C147.699 87.3998 147.797 87.4887 147.913 87.5468C148.03 87.6049 148.159 87.63 148.289 87.6193C148.418 87.6087 148.543 87.5627 148.648 87.4864L159.029 81.4533C159.313 81.2781 159.542 81.027 159.691 80.7283C159.839 80.4296 159.901 80.0954 159.869 79.7634Z" fill="#EBEBEB"/>
<path d="M175.867 70.5477L174.447 60.5772C174.445 60.4473 174.407 60.3204 174.338 60.2104C174.269 60.1004 174.171 60.0116 174.055 59.9534C173.939 59.8953 173.809 59.8702 173.679 59.8809C173.55 59.8916 173.426 59.9376 173.32 60.0139L162.961 65.9906C162.684 66.1705 162.46 66.4233 162.316 66.7212C162.172 67.0192 162.113 67.351 162.144 67.6805L163.57 77.6566C163.572 77.7866 163.609 77.9134 163.679 78.0234C163.748 78.1334 163.846 78.2223 163.962 78.2804C164.078 78.3385 164.208 78.3636 164.338 78.3529C164.467 78.3423 164.591 78.2963 164.696 78.2199L175.078 72.2264C175.351 72.0456 175.568 71.7935 175.707 71.4975C175.846 71.2014 175.902 70.8729 175.867 70.5477Z" fill="#EBEBEB"/>
<path d="M76.9613 106.453L75.5361 96.4823C75.5361 96.3516 75.4997 96.2234 75.4309 96.1122C75.3622 96.0009 75.2638 95.911 75.1469 95.8525C75.0299 95.7941 74.899 95.7693 74.7687 95.781C74.6385 95.7928 74.5141 95.8406 74.4095 95.919L64.0503 101.896C63.7716 102.075 63.5479 102.327 63.4037 102.626C63.2596 102.924 63.2007 103.256 63.2335 103.586L64.6699 113.562C64.6699 113.693 64.7063 113.821 64.7751 113.932C64.8438 114.043 64.9422 114.133 65.0592 114.192C65.1761 114.25 65.3071 114.275 65.4373 114.263C65.5675 114.251 65.6919 114.204 65.7965 114.125L76.1557 108.143C76.4333 107.963 76.6555 107.71 76.7977 107.412C76.9399 107.113 76.9966 106.782 76.9613 106.453Z" fill="#0056F1"/>
<path d="M92.9817 97.2259L91.5566 87.2554C91.5566 87.1246 91.5201 86.9965 91.4514 86.8852C91.3826 86.774 91.2843 86.6841 91.1673 86.6256C91.0504 86.5671 90.9194 86.5424 90.7892 86.5541C90.6589 86.5659 90.5346 86.6136 90.4299 86.6921L80.0707 92.6744C79.7911 92.8525 79.5666 93.1049 79.4224 93.4034C79.2781 93.7019 79.2198 94.0346 79.2539 94.3643L80.6791 104.335C80.6791 104.466 80.7155 104.594 80.7843 104.705C80.853 104.816 80.9514 104.906 81.0683 104.965C81.1853 105.023 81.3162 105.048 81.4465 105.036C81.5767 105.024 81.7011 104.977 81.8057 104.898L92.1649 98.9158C92.4445 98.7377 92.669 98.4853 92.8133 98.1869C92.9575 97.8884 93.0158 97.5557 92.9817 97.2259Z" fill="#EBEBEB"/>
<path d="M109.002 87.982L107.577 78.0059C107.577 77.8751 107.541 77.7469 107.472 77.6357C107.403 77.5245 107.305 77.4346 107.188 77.3761C107.071 77.3176 106.94 77.2929 106.81 77.3046C106.679 77.3163 106.555 77.3641 106.45 77.4426L96.0912 83.4249C95.8116 83.603 95.5871 83.8554 95.4428 84.1539C95.2986 84.4524 95.2403 84.7851 95.2744 85.1148L96.6995 95.0853C96.6995 95.2161 96.736 95.3443 96.8047 95.4555C96.8735 95.5668 96.9718 95.6567 97.0888 95.7151C97.2057 95.7736 97.3367 95.7984 97.4669 95.7866C97.5972 95.7749 97.7215 95.7271 97.8262 95.6487L108.185 89.672C108.464 89.4929 108.688 89.2403 108.832 88.9421C108.976 88.6439 109.035 88.3116 109.002 87.982Z" fill="#EBEBEB"/>
<path d="M125.023 78.7438L123.597 68.7677C123.597 68.6369 123.561 68.5087 123.492 68.3975C123.424 68.2862 123.325 68.1964 123.208 68.1379C123.091 68.0794 122.96 68.0546 122.83 68.0664C122.7 68.0781 122.575 68.1259 122.471 68.2044L112.112 74.1867C111.832 74.3648 111.608 74.6172 111.463 74.9157C111.319 75.2141 111.261 75.5469 111.295 75.8766L112.714 85.8528C112.716 85.9827 112.754 86.1095 112.823 86.2195C112.892 86.3295 112.99 86.4184 113.107 86.4765C113.223 86.5346 113.353 86.5597 113.482 86.549C113.612 86.5384 113.736 86.4924 113.841 86.4161L124.2 80.4338C124.48 80.2554 124.705 80.0032 124.85 79.7049C124.995 79.4066 125.055 79.074 125.023 78.7438Z" fill="#EBEBEB"/>
<path d="M141.043 69.5056L139.618 59.5295C139.618 59.3987 139.581 59.2705 139.513 59.1593C139.444 59.048 139.346 58.9581 139.229 58.8997C139.112 58.8412 138.981 58.8164 138.851 58.8282C138.72 58.8399 138.596 58.8877 138.491 58.9661L128.132 64.9485C127.852 65.1266 127.628 65.379 127.484 65.6774C127.339 65.9759 127.281 66.3086 127.315 66.6384L128.735 76.6145C128.737 76.7445 128.775 76.8713 128.844 76.9813C128.913 77.0913 129.011 77.1802 129.127 77.2383C129.243 77.2964 129.373 77.3215 129.503 77.3108C129.632 77.3002 129.756 77.2542 129.861 77.1778L140.221 71.1955C140.501 71.0177 140.726 70.7655 140.871 70.4671C141.016 70.1687 141.076 69.8358 141.043 69.5056Z" fill="#EBEBEB"/>
<path d="M157.052 60.2674L155.627 50.2912C155.627 50.1604 155.591 50.0323 155.522 49.921C155.453 49.8098 155.355 49.7199 155.238 49.6614C155.121 49.6029 154.99 49.5782 154.86 49.5899C154.729 49.6017 154.605 49.6494 154.5 49.7279L144.141 55.7102C143.862 55.8888 143.638 56.1413 143.494 56.4396C143.35 56.738 143.291 57.0705 143.324 57.4001L144.75 67.3707C144.752 67.5006 144.789 67.6274 144.858 67.7374C144.928 67.8474 145.026 67.9363 145.142 67.9944C145.258 68.0525 145.388 68.0776 145.518 68.0669C145.647 68.0563 145.771 68.0103 145.876 67.934L156.235 61.9517C156.514 61.7735 156.737 61.5219 156.881 61.2247C157.026 60.9274 157.085 60.5961 157.052 60.2674Z" fill="#EBEBEB"/>
<path d="M173.084 51.0348L171.659 41.0586C171.659 40.9279 171.622 40.7997 171.554 40.6884C171.485 40.5772 171.386 40.4873 171.27 40.4288C171.153 40.3703 171.022 40.3456 170.891 40.3573C170.761 40.3691 170.637 40.4169 170.532 40.4953L160.173 46.4776C159.894 46.6562 159.67 46.9087 159.525 47.207C159.381 47.5054 159.323 47.8379 159.356 48.1676L160.776 58.1437C160.778 58.2736 160.815 58.4005 160.885 58.5105C160.954 58.6205 161.052 58.7093 161.168 58.7675C161.284 58.8256 161.414 58.8507 161.544 58.84C161.673 58.8293 161.797 58.7833 161.902 58.707L172.262 52.7247C172.542 52.5468 172.767 52.2947 172.912 51.9963C173.057 51.6979 173.117 51.365 173.084 51.0348Z" fill="#EBEBEB"/>
<path d="M74.4996 88.8214L74.1391 86.2752C74.1391 86.1445 74.1027 86.0163 74.034 85.9051C73.9652 85.7938 73.8669 85.7039 73.7499 85.6454C73.6329 85.587 73.502 85.5622 73.3718 85.574C73.2415 85.5857 73.1171 85.6335 73.0125 85.7119L62.6477 91.7055C62.3685 91.8841 62.1444 92.1366 62.0002 92.4349C61.856 92.7333 61.7974 93.0658 61.8309 93.3954L62.1858 95.9416C62.1878 96.0715 62.2254 96.1984 62.2946 96.3083C62.3638 96.4183 62.4618 96.5072 62.578 96.5653C62.6942 96.6234 62.8242 96.6485 62.9537 96.6379C63.0831 96.6272 63.2072 96.5812 63.3124 96.5049L73.6828 90.5C73.9588 90.321 74.1807 90.0701 74.3246 89.7743C74.4686 89.4785 74.5291 89.149 74.4996 88.8214Z" fill="#E6E6E6"/>
<path d="M90.5201 79.5832L90.1596 77.037C90.1596 76.9063 90.1231 76.7781 90.0544 76.6668C89.9856 76.5556 89.8873 76.4657 89.7703 76.4072C89.6534 76.3487 89.5224 76.324 89.3922 76.3357C89.2619 76.3475 89.1376 76.3953 89.0329 76.4737L78.6681 82.4673C78.389 82.6459 78.1648 82.8984 78.0206 83.1967C77.8764 83.4951 77.8178 83.8275 77.8513 84.1572L78.2062 86.7034C78.2082 86.8333 78.2459 86.9601 78.315 87.0701C78.3842 87.1801 78.4822 87.269 78.5985 87.3271C78.7147 87.3852 78.8446 87.4103 78.9741 87.3996C79.1036 87.389 79.2276 87.343 79.3328 87.2667L89.6976 81.2843C89.9783 81.1042 90.2036 80.85 90.3487 80.5497C90.4939 80.2495 90.5532 79.915 90.5201 79.5832Z" fill="#E6E6E6"/>
<path d="M106.541 70.3449L106.18 67.7988C106.178 67.6689 106.14 67.542 106.071 67.432C106.002 67.322 105.904 67.2331 105.788 67.175C105.672 67.1169 105.542 67.0918 105.412 67.1025C105.283 67.1131 105.159 67.1591 105.053 67.2355L94.6885 73.229C94.4094 73.4076 94.1853 73.6601 94.0411 73.9585C93.8969 74.2568 93.8383 74.5893 93.8717 74.919L94.2266 77.4651C94.2266 77.5959 94.263 77.7241 94.3318 77.8353C94.4005 77.9465 94.4989 78.0364 94.6159 78.0949C94.7328 78.1534 94.8638 78.1781 94.994 78.1664C95.1242 78.1547 95.2486 78.1069 95.3532 78.0284L105.718 72.0461C105.999 71.866 106.224 71.6117 106.369 71.3115C106.514 71.0113 106.574 70.6767 106.541 70.3449Z" fill="#E6E6E6"/>
<path d="M122.561 61.1123L122.2 58.5606C122.198 58.4306 122.161 58.3038 122.092 58.1938C122.022 58.0838 121.924 57.9949 121.808 57.9368C121.692 57.8787 121.562 57.8536 121.433 57.8643C121.303 57.8749 121.179 57.9209 121.074 57.9972L110.709 63.9908C110.43 64.1694 110.206 64.4219 110.062 64.7202C109.917 65.0186 109.859 65.3511 109.892 65.6807L110.247 68.2269C110.247 68.3577 110.283 68.4858 110.352 68.5971C110.421 68.7083 110.519 68.7982 110.636 68.8567C110.753 68.9152 110.884 68.9399 111.014 68.9282C111.145 68.9164 111.269 68.8687 111.374 68.7902L121.739 62.8135C122.018 62.6325 122.243 62.378 122.388 62.0781C122.533 61.7781 122.593 61.444 122.561 61.1123Z" fill="#E6E6E6"/>
<path d="M138.581 51.8741L138.221 49.3223C138.219 49.1924 138.181 49.0656 138.112 48.9556C138.043 48.8456 137.945 48.7567 137.829 48.6986C137.712 48.6405 137.582 48.6154 137.453 48.626C137.323 48.6367 137.199 48.6827 137.094 48.759L126.729 54.7526C126.451 54.9317 126.227 55.1842 126.083 55.4824C125.939 55.7807 125.88 56.1129 125.913 56.4425L126.267 58.9887C126.267 59.1194 126.304 59.2476 126.373 59.3589C126.441 59.4701 126.54 59.56 126.657 59.6185C126.774 59.677 126.905 59.7017 127.035 59.69C127.165 59.6782 127.289 59.6304 127.394 59.552L137.759 53.5753C138.039 53.3942 138.263 53.1398 138.408 52.8398C138.553 52.5398 138.613 52.2058 138.581 51.8741Z" fill="#E6E6E6"/>
<path d="M154.602 42.6359L154.241 40.0897C154.241 39.959 154.205 39.8308 154.136 39.7195C154.067 39.6083 153.969 39.5184 153.852 39.4599C153.735 39.4014 153.604 39.3767 153.474 39.3884C153.344 39.4002 153.219 39.448 153.115 39.5264L142.75 45.5144C142.471 45.6934 142.247 45.946 142.103 46.2442C141.959 46.5424 141.9 46.8747 141.933 47.2043L142.288 49.7561C142.29 49.886 142.328 50.0128 142.397 50.1228C142.466 50.2328 142.564 50.3217 142.68 50.3798C142.796 50.4379 142.926 50.463 143.056 50.4523C143.185 50.4417 143.309 50.3957 143.415 50.3194L153.779 44.3371C154.06 44.1564 154.285 43.9021 154.43 43.602C154.575 43.3019 154.634 42.9676 154.602 42.6359Z" fill="#E6E6E6"/>
<path d="M170.617 33.3977L170.262 30.8515C170.262 30.7207 170.225 30.5926 170.157 30.4813C170.088 30.3701 169.989 30.2802 169.872 30.2217C169.756 30.1632 169.625 30.1385 169.494 30.1502C169.364 30.162 169.24 30.2097 169.135 30.2882L158.776 36.2705C158.496 36.4486 158.272 36.701 158.128 36.9995C157.983 37.298 157.925 37.6307 157.959 37.9604L158.314 40.5066C158.316 40.6365 158.354 40.7634 158.423 40.8733C158.492 40.9833 158.59 41.0722 158.706 41.1303C158.822 41.1884 158.952 41.2135 159.082 41.2029C159.211 41.1922 159.335 41.1462 159.441 41.0699L169.805 35.0876C170.083 34.9078 170.306 34.6549 170.449 34.3568C170.592 34.0586 170.65 33.7267 170.617 33.3977Z" fill="#E6E6E6"/>
<path opacity="0.2" d="M62.4167 73.7811C62.3658 73.0368 62.5194 72.2927 62.8609 71.6295C63.2025 70.9662 63.719 70.409 64.3545 70.0182C65.6163 69.2915 66.7936 69.7929 66.9908 71.1448C67.043 71.8899 66.8894 72.6351 66.5466 73.2987C66.2039 73.9624 65.6852 74.519 65.0474 74.9077C63.7912 75.6344 62.6139 75.133 62.4167 73.7811Z" fill="black"/>
<path opacity="0.2" d="M78.4541 64.5541C78.4019 63.8097 78.5549 63.0651 78.8966 62.4016C79.2383 61.7381 79.7555 61.1811 80.3919 60.7913C81.6537 60.059 82.831 60.5603 83.0281 61.9179C83.08 62.6621 82.9261 63.4063 82.5833 64.069C82.2406 64.7317 81.7221 65.2873 81.0847 65.6751C79.8229 66.3793 78.6456 65.8779 78.4541 64.5541Z" fill="black"/>
<path opacity="0.2" d="M94.4576 55.2877C94.4054 54.5433 94.5584 53.7987 94.9001 53.1352C95.2418 52.4717 95.759 51.9147 96.3953 51.5248C97.6571 50.7925 98.8401 51.2939 99.0316 52.6514C99.0834 53.3951 98.9301 54.1387 98.5884 54.8012C98.2467 55.4637 97.7298 56.0197 97.0938 56.4087C95.832 57.1354 94.6491 56.634 94.4576 55.2877Z" fill="black"/>
<path opacity="0.2" d="M126.487 36.7944C126.435 36.0499 126.588 35.3054 126.93 34.6419C127.271 33.9784 127.789 33.4214 128.425 33.0315C129.687 32.3048 130.864 32.8062 131.056 34.1581C131.11 34.9029 130.958 35.6484 130.617 36.3124C130.275 36.9763 129.756 37.533 129.118 37.921C127.856 38.642 126.679 38.1463 126.487 36.7944Z" fill="black"/>
<path opacity="0.2" d="M142.519 27.5449C142.465 26.8002 142.618 26.0552 142.96 25.3915C143.302 24.7278 143.819 24.1709 144.457 23.782C145.719 23.0497 146.896 23.551 147.093 24.9086C147.145 25.6537 146.992 26.3989 146.649 27.0625C146.306 27.7262 145.787 28.2828 145.15 28.6715C143.888 29.3925 142.71 28.8912 142.519 27.5449Z" fill="black"/>
<path opacity="0.2" d="M158.522 18.301C158.47 17.5566 158.623 16.812 158.965 16.1485C159.307 15.485 159.824 14.928 160.46 14.5381C161.722 13.8058 162.905 14.3072 163.097 15.6648C163.148 16.4084 162.995 17.152 162.653 17.8145C162.312 18.477 161.795 19.033 161.159 19.422C159.869 20.1487 158.742 19.6473 158.522 18.301Z" fill="black"/>
<path d="M60.7606 58.5605C59.0707 57.5748 57.4146 57.4339 56.1528 58.1606C54.891 58.8873 54.1924 60.3744 54.1924 62.3516C54.2034 63.2764 54.3399 64.1955 54.598 65.0836L55.6007 64.5203C55.4207 63.8151 55.3261 63.0907 55.3191 62.3629C55.3191 60.8081 55.8148 59.6646 56.7161 59.1464C57.0858 58.9399 57.5037 58.8349 57.9272 58.8422C58.7261 58.8803 59.5019 59.1227 60.1804 59.5463C63.1772 61.2813 65.6163 65.5061 65.6163 68.9648C65.618 69.2114 65.6048 69.4578 65.5769 69.7027C65.5631 70.1932 65.4334 70.6735 65.1984 71.1043C64.9635 71.5351 64.6299 71.9041 64.2249 72.1813C63.7085 72.4602 63.1127 72.5555 62.535 72.4517C62.4213 72.8158 62.3736 73.1974 62.3942 73.5783C62.6047 73.6117 62.8176 73.6287 63.0307 73.629C63.6511 73.6367 64.2621 73.4772 64.7995 73.1671C65.3024 72.8517 65.7287 72.4282 66.0473 71.9273C66.366 71.4264 66.569 70.8609 66.6415 70.2717C66.7174 69.844 66.7551 69.4104 66.7542 68.9761C66.7598 65.1174 64.0672 60.4701 60.7606 58.5605Z" fill="#F5F5F5"/>
<path d="M76.7923 49.3111C75.1024 48.3253 73.4463 48.1844 72.1845 48.9111C70.9226 49.6378 70.2242 51.1249 70.2242 53.1021C70.2351 54.0269 70.3716 54.946 70.6297 55.8341L71.6324 55.2708C71.4524 54.5656 71.3578 53.8412 71.3508 53.1134C71.3508 51.5586 71.8465 50.4151 72.7478 49.8969C73.1175 49.6904 73.5354 49.5854 73.9589 49.5927C74.7578 49.6308 75.5336 49.8733 76.2121 50.2968C79.2089 52.0318 81.648 56.2566 81.648 59.7153C81.6497 59.9619 81.6365 60.2083 81.6086 60.4533C81.5948 60.9438 81.4651 61.424 81.2301 61.8548C80.9952 62.2856 80.6616 62.6546 80.2566 62.9318C79.7402 63.2107 79.1444 63.3061 78.5667 63.2022C78.453 63.5663 78.4053 63.9479 78.4259 64.3288C78.6364 64.3623 78.8493 64.3792 79.0624 64.3795C79.6828 64.3872 80.2938 64.2277 80.8312 63.9176C81.3341 63.6022 81.7604 63.1787 82.079 62.6778C82.3977 62.177 82.6007 61.6114 82.6732 61.0222C82.7491 60.5945 82.7868 60.1609 82.7859 59.7266C82.7915 55.8848 80.0989 51.2207 76.7923 49.3111Z" fill="#F5F5F5"/>
<path d="M92.7959 40.0672C91.106 39.0814 89.4498 38.9406 88.188 39.6672C86.9262 40.3939 86.2277 41.881 86.2277 43.8582C86.2387 44.7831 86.3752 45.7021 86.6333 46.5903L87.636 46.027C87.456 45.3217 87.3614 44.5974 87.3543 43.8695C87.3543 42.3148 87.85 41.1713 88.7513 40.653C89.1211 40.4465 89.539 40.3416 89.9624 40.3488C90.7614 40.387 91.5372 40.6294 92.2157 41.053C95.2125 42.788 97.6516 47.0128 97.6516 50.4715C97.6532 50.718 97.6401 50.9644 97.6121 51.2094C97.5983 51.6999 97.4687 52.1802 97.2337 52.611C96.9987 53.0417 96.6651 53.4108 96.2602 53.6879C95.7438 53.9669 95.148 54.0622 94.5703 53.9583C94.4566 54.3225 94.4089 54.704 94.4295 55.0849C94.64 55.1184 94.8528 55.1353 95.066 55.1356C95.6864 55.1434 96.2974 54.9838 96.8348 54.6737C97.3377 54.3583 97.764 53.9348 98.0826 53.434C98.4013 52.9331 98.6042 52.3675 98.6768 51.7783C98.7527 51.3507 98.7904 50.9171 98.7895 50.4827C98.7951 46.641 96.1025 41.9768 92.7959 40.0672Z" fill="#F5F5F5"/>
<path d="M124.831 21.602C123.141 20.6162 121.485 20.4754 120.223 21.2021C118.961 21.9287 118.263 23.4159 118.263 25.3931C118.274 26.3179 118.41 27.237 118.668 28.1251L119.671 27.5618C119.491 26.8565 119.397 26.1322 119.39 25.4043C119.39 23.8496 119.885 22.7061 120.787 22.1878C121.156 21.9814 121.574 21.8764 121.998 21.8837C122.797 21.9218 123.572 22.1642 124.251 22.5878C127.248 24.3228 129.687 28.5476 129.687 32.0063C129.688 32.2528 129.675 32.4992 129.647 32.7442C129.634 33.2347 129.504 33.715 129.269 34.1458C129.034 34.5765 128.7 34.9456 128.295 35.2228C127.779 35.5017 127.183 35.597 126.605 35.4931C126.492 35.8573 126.444 36.2388 126.465 36.6198C126.675 36.6532 126.888 36.6702 127.101 36.6705C127.722 36.6782 128.333 36.5186 128.87 36.2085C129.373 35.8932 129.799 35.4696 130.118 34.9688C130.436 34.4679 130.639 33.9023 130.712 33.3132C130.788 32.8855 130.826 32.4519 130.825 32.0175C130.83 28.1758 128.138 23.5116 124.831 21.602Z" fill="#F5F5F5"/>
<path d="M140.863 12.3469C139.173 11.3611 137.517 11.2203 136.255 11.9469C134.993 12.6736 134.295 14.1607 134.295 16.1379C134.306 17.0628 134.442 17.9818 134.7 18.87L135.703 18.3067C135.523 17.6014 135.428 16.877 135.421 16.1492C135.421 14.5945 135.917 13.451 136.818 12.9327C137.188 12.7262 137.606 12.6213 138.029 12.6285C138.828 12.6666 139.604 12.9091 140.283 13.3327C143.279 15.0677 145.718 19.2925 145.718 22.7512C145.72 22.9977 145.707 23.2441 145.679 23.4891C145.665 23.9796 145.536 24.4599 145.301 24.8906C145.066 25.3214 144.732 25.6905 144.327 25.9676C143.811 26.2466 143.215 26.3419 142.637 26.238C142.523 26.6022 142.476 26.9837 142.496 27.3646C142.707 27.3981 142.92 27.415 143.133 27.4153C143.753 27.4231 144.364 27.2635 144.902 26.9534C145.405 26.638 145.831 26.2145 146.15 25.7136C146.468 25.2128 146.671 24.6472 146.744 24.058C146.82 23.6304 146.857 23.1968 146.856 22.7624C146.862 18.9263 144.169 14.2565 140.863 12.3469Z" fill="#F5F5F5"/>
<path d="M156.866 3.10301C155.176 2.11723 153.52 1.9764 152.258 2.70307C150.997 3.42973 150.293 4.91686 150.293 6.89407C150.304 7.8189 150.44 8.73796 150.698 9.6261L151.701 9.0628C151.521 8.35753 151.426 7.63318 151.419 6.90533C151.419 5.35061 151.915 4.2071 152.816 3.68885C153.186 3.48236 153.604 3.37741 154.027 3.38467C154.826 3.42278 155.602 3.66522 156.28 4.0888C159.277 5.82379 161.716 10.0486 161.716 13.5073C161.718 13.7538 161.705 14.0003 161.677 14.2452C161.663 14.7357 161.533 15.216 161.299 15.6468C161.064 16.0776 160.73 16.4466 160.325 16.7238C159.809 17.0027 159.213 17.098 158.635 16.9942C158.521 17.3583 158.474 17.7398 158.494 18.1208C158.705 18.1542 158.918 18.1712 159.131 18.1715C159.751 18.1792 160.362 18.0196 160.9 17.7096C161.403 17.3942 161.829 16.9706 162.147 16.4698C162.466 15.9689 162.669 15.4033 162.742 14.8142C162.818 14.3865 162.855 13.9529 162.854 13.5186C162.866 9.6768 160.173 5.01262 156.866 3.10301Z" fill="#F5F5F5"/>
<path d="M173.512 149.613L169.727 156.187C169.478 156.598 169.402 157.091 169.517 157.557C169.632 158.024 169.927 158.425 170.338 158.674C170.749 158.923 171.241 158.998 171.708 158.884C172.174 158.769 172.576 158.474 172.825 158.063L176.633 151.45C176.999 150.819 176.605 149.901 175.748 149.405C174.892 148.909 173.878 148.999 173.512 149.613Z" fill="#455A64"/>
<path d="M203.638 138.037L210.211 141.823C210.414 141.948 210.638 142.032 210.873 142.069C211.108 142.106 211.348 142.096 211.579 142.04C211.809 141.984 212.027 141.882 212.218 141.741C212.409 141.6 212.571 141.422 212.692 141.218C212.814 141.014 212.894 140.788 212.928 140.553C212.961 140.317 212.948 140.078 212.888 139.848C212.828 139.618 212.723 139.402 212.578 139.213C212.434 139.024 212.254 138.866 212.048 138.747L205.435 134.967C204.804 134.601 203.886 134.996 203.39 135.852C202.894 136.708 203.007 137.671 203.638 138.037Z" fill="#455A64"/>
<path d="M210.921 108.402H210.887L194.873 99.158H194.828C191.313 97.1583 186.468 97.4681 181.122 100.544C170.38 106.74 161.671 121.831 161.671 134.235C161.671 140.432 163.84 144.763 167.338 146.803H167.366L183.381 156.052H183.421C186.936 158.063 191.786 157.742 197.137 154.672C207.874 148.476 216.582 133.385 216.582 120.986C216.582 114.79 214.419 110.441 210.921 108.402Z" fill="#0056F1"/>
<path opacity="0.1" d="M183.122 155.866L167.349 146.774H167.316C163.818 144.73 161.654 140.381 161.654 134.207C161.654 128.675 163.389 122.614 166.257 117.049L182.271 126.293C179.399 131.858 177.669 137.919 177.669 143.451C177.681 149.478 179.753 153.771 183.122 155.866Z" fill="black"/>
<path opacity="0.4" d="M210.889 140.137C218.484 126.981 218.485 112.761 210.89 108.376C203.295 103.991 190.98 111.101 183.385 124.258C175.789 137.414 175.788 151.633 183.384 156.018C190.979 160.403 203.293 153.293 210.889 140.137Z" fill="white"/>
<path d="M188.445 153.371C182.294 153.371 181.629 146.419 181.629 143.428C181.629 132.489 189.634 118.643 199.092 113.156C201.503 111.765 203.824 111.033 205.806 111.033C211.958 111.033 212.622 117.984 212.622 120.975C212.622 131.914 204.618 145.76 195.16 151.247C192.743 152.638 190.423 153.371 188.445 153.371Z" fill="#FAFAFA"/>
<path d="M192.822 144.876C192.792 144.881 192.762 144.881 192.732 144.876C192.662 144.85 192.604 144.799 192.572 144.731C192.539 144.664 192.534 144.586 192.557 144.515L196.867 132.207C196.891 132.136 196.943 132.078 197.011 132.045C197.078 132.012 197.156 132.008 197.227 132.033C197.298 132.057 197.357 132.109 197.389 132.177C197.422 132.244 197.427 132.322 197.402 132.393L193.104 144.684C193.085 144.743 193.047 144.794 192.996 144.829C192.945 144.864 192.884 144.88 192.822 144.876Z" fill="#0056F1"/>
<path d="M203.593 135.919C203.478 135.921 203.365 135.898 203.26 135.852L196.292 132.838V120.198C196.292 119.973 196.381 119.759 196.54 119.6C196.698 119.442 196.913 119.353 197.137 119.353C197.361 119.353 197.576 119.442 197.735 119.6C197.893 119.759 197.982 119.973 197.982 120.198V131.728L203.931 134.303C204.107 134.381 204.251 134.518 204.339 134.69C204.427 134.862 204.453 135.058 204.414 135.247C204.374 135.436 204.271 135.606 204.122 135.728C203.972 135.851 203.786 135.918 203.593 135.919Z" fill="#37474F"/>
<path d="M197.137 129.56C198.399 128.827 199.424 129.419 199.424 130.878C199.377 131.668 199.146 132.436 198.749 133.121C198.352 133.806 197.8 134.388 197.137 134.821C195.87 135.553 194.844 134.962 194.844 133.497C194.893 132.708 195.125 131.94 195.524 131.256C195.922 130.573 196.474 129.992 197.137 129.56Z" fill="#0056F1"/>
<path d="M178.525 120.49C175.765 125.262 170.566 127.425 166.657 125.166C164.363 123.84 162.691 121.657 162.007 119.098C161.323 116.539 161.683 113.813 163.009 111.52C164.335 109.227 166.518 107.554 169.077 106.87C171.636 106.186 174.362 106.546 176.655 107.872C180.553 110.182 181.274 115.714 178.525 120.49Z" fill="#455A64"/>
<path d="M166.657 125.166C170.566 127.419 175.765 125.262 178.525 120.49C179.142 119.421 179.599 118.267 179.883 117.066C179.725 117.274 175.129 123.132 169.417 121.482C163.603 119.792 162.511 115.325 163.012 111.517C162.355 112.652 161.928 113.906 161.755 115.207C161.583 116.507 161.668 117.829 162.007 119.096C162.345 120.364 162.93 121.552 163.728 122.594C164.526 123.635 165.521 124.509 166.657 125.166Z" fill="#37474F"/>
<path d="M165.051 110.548L162.088 108.858C161.886 108.733 161.661 108.649 161.426 108.612C161.192 108.575 160.952 108.585 160.721 108.641C160.49 108.697 160.273 108.799 160.082 108.94C159.89 109.081 159.729 109.259 159.607 109.463C159.485 109.667 159.405 109.893 159.372 110.129C159.338 110.364 159.352 110.603 159.412 110.833C159.472 111.063 159.577 111.279 159.721 111.468C159.866 111.657 160.046 111.815 160.252 111.934L163.249 113.669C163.885 114.035 164.803 113.641 165.299 112.784C165.795 111.928 165.682 110.914 165.051 110.548Z" fill="#0056F1"/>
<path d="M209.248 96.257L210.938 93.2997C211.063 93.0976 211.147 92.8726 211.184 92.6379C211.221 92.4032 211.212 92.1634 211.155 91.9325C211.099 91.7016 210.997 91.4843 210.856 91.293C210.715 91.1018 210.537 90.9406 210.333 90.8188C210.129 90.6969 209.903 90.6169 209.668 90.5834C209.432 90.5499 209.193 90.5635 208.963 90.6235C208.733 90.6835 208.517 90.7886 208.328 90.9328C208.139 91.077 207.981 91.2573 207.863 91.4633L206.128 94.4601C205.761 95.091 206.128 96.0092 207.012 96.5049C207.896 97.0006 208.876 96.8936 209.248 96.257Z" fill="#0056F1"/>
<path d="M194.935 97.4794C195.591 96.342 196.465 95.3451 197.507 94.5456C198.549 93.746 199.738 93.1595 201.006 92.8195C202.275 92.4795 203.598 92.3927 204.9 92.564C206.202 92.7353 207.457 93.1614 208.595 93.8179C209.732 94.4744 210.729 95.3485 211.529 96.3903C212.328 97.4321 212.915 98.6212 213.255 99.8897C213.595 101.158 213.682 102.481 213.51 103.783C213.339 105.085 212.913 106.341 212.256 107.478L194.935 97.4794Z" fill="#455A64"/>
<path d="M210.059 94.8825C210.623 96.0598 212.155 101.045 210.059 102.284C207.964 103.524 198.286 99.4115 198.286 99.4115L212.256 107.478C213.42 105.453 213.837 103.084 213.436 100.783C213.034 98.482 211.84 96.3943 210.059 94.8825Z" fill="#37474F"/>
<path d="M146.839 123.425C136.869 110.024 133.591 108.531 131.715 108.075L135.004 117.088L141.843 125.859" fill="#FFA8A7"/>
<path d="M130.74 107.929C130.74 107.929 132.858 107.287 135.923 110.289C138.987 113.291 142.682 117.668 142.682 117.668C142.682 117.668 141.685 121.245 138.57 122.355L134.064 117.668L130.74 107.929Z" fill="#0056F1"/>
<path opacity="0.1" d="M130.74 107.929C130.74 107.929 132.858 107.287 135.923 110.289C138.987 113.291 142.682 117.668 142.682 117.668C142.682 117.668 141.685 121.245 138.57 122.355L134.064 117.668L130.74 107.929Z" fill="black"/>
<path d="M132.682 100.514C135.758 99.7878 137.663 96.7053 136.937 93.629C136.211 90.5527 133.128 88.6475 130.052 89.3735C126.976 90.0996 125.071 93.182 125.797 96.2583C126.523 99.3347 129.605 101.24 132.682 100.514Z" fill="#263238"/>
<path d="M117.666 198.689H121.699V191.788H117.666V198.689Z" fill="#FFA8A7"/>
<path d="M130.813 193.675L134.841 193.816L135.044 186.51L131.011 186.369L130.813 193.675Z" fill="#FFA8A7"/>
<path d="M117.925 137.074V164.964C117.829 166.09 117.012 167.988 116.798 172.703C116.528 178.489 117.412 194.408 117.412 194.408C117.412 194.408 119.299 196.283 121.97 194.408C121.97 194.408 125.546 171.684 126.273 165.955C126.904 160.953 127.963 147.366 127.963 147.366L130.374 167.831C130.374 167.831 129.715 171.588 129.574 174.236C129.433 176.883 130.735 191.039 130.735 191.039C131.388 191.447 132.137 191.677 132.907 191.706C133.677 191.734 134.441 191.561 135.123 191.202C135.123 191.202 137.883 169.994 138.3 167.6C138.717 165.206 136.784 137.069 136.784 137.069L117.925 137.074Z" fill="#37474F"/>
<path d="M121.8 109.219C121.236 109.297 120.68 109.427 120.139 109.607C119.012 110.041 118.522 111.404 118.257 112.604C118.036 113.611 117.924 114.638 117.925 115.669V137.074C120.741 140.15 130.611 141.581 136.784 137.074C136.784 137.074 136.666 118.17 136.221 115.06C135.416 109.664 132.841 107.737 130.239 107.94L124.014 108.83L121.8 109.219Z" fill="#0056F1"/>
<path d="M121.474 99.006C121.474 99.006 122.403 103.36 122.775 104.076C123.021 104.515 123.423 104.845 123.902 105L123.834 101.93L121.474 99.006Z" fill="#263238"/>
<path d="M122.64 92.7589C122.315 92.7219 121.986 92.7589 121.678 92.8672C121.37 92.9755 121.09 93.1523 120.86 93.3842C120.099 94.1672 120.527 96.6119 121.474 99.0172L123.226 99.2144L122.64 92.7589Z" fill="#263238"/>
<path d="M123.75 99.2031C123.395 99.4172 122.899 98.7412 122.465 98.2906C122.031 97.8399 120.623 97.2203 119.919 98.7018C119.215 100.183 120.539 102.211 121.648 102.56C123.564 103.158 123.851 101.93 123.851 101.93L123.997 108.836C124.42 109.762 125.066 110.569 125.877 111.184C126.688 111.8 127.639 112.204 128.645 112.362C132.024 112.818 131.337 110.024 130.222 108.65V106.549C131.075 106.686 131.94 106.731 132.802 106.684C134.21 106.464 135.094 105.354 135.523 103.833C136.21 101.383 136.469 99.4115 135.889 94.5953C135.247 89.3227 129.129 89.2664 125.8 91.3506C122.471 93.4349 123.75 99.2031 123.75 99.2031Z" fill="#FFA8A7"/>
<path d="M123.75 99.7946C123.569 99.7946 122.899 98.668 122.465 98.2906C121.862 97.7273 122.64 92.7589 122.64 92.7589C122.478 92.3299 122.446 91.8632 122.546 91.4159C122.646 90.9686 122.874 90.5603 123.203 90.2409C124.026 89.3284 125.411 89.2326 127.772 88.8608C129.011 88.6636 130.892 88.2975 132.132 88.0891C133.607 87.8131 134.83 87.5258 135.872 88.4271C136.283 88.7802 136.574 89.2525 136.704 89.7784C136.834 90.3044 136.797 90.8578 136.599 91.3619C136.491 91.5927 136.349 91.8055 136.176 91.9928C135.878 92.3252 135.827 92.7758 135.404 92.911C135.404 92.911 134.509 93.7221 132.267 93.9925C130.202 94.1469 128.128 94.1073 126.07 93.8742C125.417 93.7841 125.242 93.9925 124.893 95.7106C124.595 97.2259 124.341 99.7833 123.75 99.7946Z" fill="#263238"/>
<path d="M122.645 93.1476L120.527 92.021C120.594 91.8782 120.69 91.7505 120.808 91.6458C120.926 91.5412 121.064 91.4616 121.213 91.412C121.363 91.3625 121.521 91.344 121.678 91.3576C121.836 91.3713 121.988 91.4168 122.127 91.4915C122.408 91.6498 122.618 91.9092 122.714 92.2169C122.81 92.5246 122.786 92.8574 122.645 93.1476Z" fill="#263238"/>
<path d="M130.216 106.549C130.216 106.549 127.079 105.918 125.98 105.332C125.334 104.997 124.804 104.475 124.459 103.833C124.627 104.474 124.92 105.076 125.321 105.602C126.127 106.627 130.216 107.388 130.216 107.388V106.549Z" fill="#F28F8F"/>
<path d="M129.664 98.9947C129.66 99.1184 129.619 99.2381 129.547 99.3388C129.475 99.4396 129.375 99.5169 129.26 99.5613C129.144 99.6056 129.018 99.6149 128.897 99.5881C128.776 99.5612 128.666 99.4994 128.58 99.4104C128.494 99.3213 128.436 99.2089 128.413 99.0872C128.391 98.9655 128.405 98.8398 128.453 98.7258C128.501 98.6118 128.582 98.5146 128.685 98.4462C128.788 98.3778 128.91 98.3413 129.033 98.3412C129.118 98.342 129.201 98.3595 129.279 98.3929C129.357 98.4263 129.427 98.4748 129.486 98.5356C129.545 98.5965 129.591 98.6684 129.621 98.7472C129.652 98.826 129.666 98.9102 129.664 98.9947Z" fill="#263238"/>
<path d="M128.994 96.6232L127.648 97.3611C127.553 97.1762 127.533 96.9622 127.592 96.7631C127.651 96.564 127.784 96.395 127.963 96.2908C128.052 96.2426 128.15 96.213 128.251 96.2037C128.352 96.1944 128.453 96.2056 128.55 96.2367C128.646 96.2677 128.735 96.318 128.811 96.3844C128.888 96.4509 128.95 96.5321 128.994 96.6232Z" fill="#263238"/>
<path d="M129.935 102.769L131.371 103.332C131.34 103.429 131.29 103.518 131.224 103.594C131.157 103.671 131.076 103.733 130.985 103.777C130.894 103.821 130.795 103.847 130.694 103.851C130.592 103.856 130.491 103.841 130.397 103.805C130.297 103.769 130.207 103.712 130.13 103.64C130.053 103.568 129.991 103.481 129.948 103.384C129.905 103.288 129.881 103.183 129.879 103.078C129.877 102.972 129.896 102.867 129.935 102.769Z" fill="#F28F8F"/>
<path d="M135.275 97.1471L134.047 96.2007C134.104 96.1172 134.178 96.0464 134.264 95.9926C134.35 95.9388 134.446 95.9032 134.547 95.8879C134.647 95.8726 134.749 95.8779 134.847 95.9036C134.945 95.9294 135.037 95.9748 135.117 96.0373C135.281 96.1665 135.389 96.3539 135.418 96.5606C135.448 96.7673 135.396 96.9773 135.275 97.1471Z" fill="#263238"/>
<path d="M134.897 98.8201C134.899 98.9041 134.884 98.9876 134.853 99.0658C134.822 99.144 134.776 99.2152 134.717 99.2755C134.658 99.3357 134.588 99.3837 134.511 99.4167C134.434 99.4497 134.351 99.4671 134.266 99.4679C134.136 99.4724 134.007 99.4377 133.897 99.3685C133.786 99.2992 133.699 99.1985 133.646 99.0792C133.594 98.9599 133.578 98.8276 133.601 98.6992C133.624 98.5709 133.685 98.4523 133.776 98.3589C133.867 98.2655 133.984 98.2014 134.111 98.175C134.239 98.1485 134.372 98.1609 134.492 98.2105C134.613 98.2601 134.716 98.3446 134.788 98.4533C134.86 98.5619 134.898 98.6896 134.897 98.8201Z" fill="#263238"/>
<path d="M131.489 97.6428L131.698 101.428L133.675 100.758L131.489 97.6428Z" fill="#F28F8F"/>
<path d="M121.693 196.7V196.137C122.082 196.3 122.978 199.725 124.578 201.207C125.851 202.367 127.586 203.702 128.025 204.998C128.464 206.293 125.608 207.088 124.42 206.874C123.04 206.631 120.646 205.657 120.049 204.756C119.452 203.854 119.164 202.502 118.674 201.866C118.184 201.229 117.063 200.469 116.798 199.703C116.718 198.988 116.797 198.265 117.029 197.585C117.215 196.875 117.418 196.092 117.66 196.159C117.66 196.244 117.66 196.599 117.66 196.599C118.236 197.047 118.947 197.287 119.677 197.28C120.268 197.269 121.699 197.151 121.693 196.7Z" fill="#263238"/>
<path d="M134.88 192.571C135.095 192.571 135.264 192.875 135.725 193.377C136.417 194.068 137.218 194.639 138.097 195.067C139.607 195.827 142.541 196.988 143.871 197.585C144.699 197.962 144.659 198.965 143.803 199.534C142.947 200.103 140.874 200.514 138.39 199.956C137.032 199.658 135.269 198.401 134.154 198.469C133.038 198.537 130.949 198.525 130.126 197.956C129.304 197.388 129.63 196.176 129.861 195.14C130.115 194.013 130.481 192.261 130.858 192.323V192.684C131.349 193.416 133.816 193.715 134.88 193.18V192.571Z" fill="#263238"/>
<path d="M127.963 147.36C130.054 146.715 131.977 145.616 133.596 144.144C133.596 144.144 132.515 146.172 129.292 148.059L129.36 159.049L127.963 147.36Z" fill="#263238"/>
<path d="M120.319 147.191C119.654 146.628 119.237 145.901 118.235 145.163C117.508 144.714 116.9 144.098 116.46 143.366C115.897 142.42 115.334 139.266 115.165 136.269C115.064 132.922 115.535 129.583 116.556 126.394C117.925 122.614 120.702 117.544 121.626 115.404C122.55 113.263 122.054 112.187 121.226 111.1C120.257 109.827 118.46 109.821 116.765 112.722C114.506 116.755 112.703 121.027 111.391 125.459C110.506 128.775 110.176 132.214 110.416 135.638C110.602 138.809 111.295 141.231 112.185 144.279C112.433 145.107 112.405 145.783 112.686 147.422C112.76 148.107 112.935 148.777 113.204 149.411C113.586 150.172 114.074 150.875 114.652 151.501C115.385 152.294 116.316 152.878 117.35 153.19C117.919 153.36 118.519 153.393 119.102 153.286C119.689 153.18 120.218 152.869 120.595 152.407C120.674 152.316 120.728 152.205 120.753 152.086C120.751 151.876 120.668 151.674 120.522 151.523C119.722 150.585 118.97 149.608 118.269 148.594C117.75 147.721 117.502 147.028 117.705 147.067C117.908 147.107 118.173 147.631 118.928 148.104C119.682 148.577 120.618 148.56 120.837 148.138C121.057 147.715 121.001 147.766 120.319 147.191Z" fill="#FFA8A7"/>
<path d="M120.595 109.478C118.984 109.574 117.519 109.934 115.908 113.128C114.297 116.322 111.768 122.304 111.768 122.304C112.378 123.397 113.273 124.304 114.357 124.93C115.441 125.556 116.674 125.877 117.925 125.859C117.925 125.859 121.632 118.119 122.234 116.08C122.837 114.041 123.254 110.745 120.595 109.478Z" fill="#0056F1"/>
<path opacity="0.1" d="M120.595 109.478C118.984 109.574 117.519 109.934 115.908 113.128C114.297 116.322 111.768 122.304 111.768 122.304C112.378 123.397 113.273 124.304 114.357 124.93C115.441 125.556 116.674 125.877 117.925 125.859C117.925 125.859 121.632 118.119 122.234 116.08C122.837 114.041 123.254 110.745 120.595 109.478Z" fill="black"/>
<path d="M141.843 125.859C141.477 126.929 137.962 130.191 135.376 131.227C134.764 131.438 134.105 131.477 133.472 131.34C132.866 131.085 132.214 130.959 131.557 130.968C130.802 131.036 130.036 131.182 129.276 131.272C129.117 131.277 128.962 131.316 128.819 131.385C128.357 131.638 128.622 132.027 128.988 132.168C129.578 132.381 130.183 132.552 130.797 132.68V132.844C129.223 133.394 127.582 133.723 125.918 133.824C125.623 133.827 125.336 133.926 125.101 134.106C125.006 134.213 124.939 134.342 124.906 134.482C124.874 134.622 124.877 134.767 124.916 134.905C124.994 135.18 125.129 135.435 125.31 135.655C125.989 136.682 127.045 137.401 128.25 137.654C129.468 137.747 130.692 137.594 131.85 137.204C132.409 137.046 132.961 136.871 133.506 136.68C135.1 136.093 136.653 135.398 138.153 134.601C141.366 132.915 144.346 130.819 147.02 128.365C148.642 126.783 148.242 125.262 146.879 123.425" fill="#FFA8A7"/>
<path d="M134.999 131.329C134.999 131.329 135.562 131.12 136.204 132.151C136.846 133.182 137.252 135.063 136.446 135.435C136.724 135.451 137.001 135.394 137.25 135.271C137.498 135.148 137.711 134.961 137.866 134.731C138.031 133.997 137.986 133.23 137.735 132.521C137.484 131.811 137.037 131.187 136.446 130.72C135.904 130.732 135.387 130.949 134.999 131.329Z" fill="#37474F"/>
<path d="M137.979 131.706C138.099 131.91 138.156 132.145 138.143 132.381C138.129 132.618 138.046 132.845 137.903 133.034C137.76 133.223 137.565 133.365 137.341 133.442C137.117 133.52 136.875 133.529 136.646 133.468C136.417 133.408 136.211 133.281 136.054 133.103C135.898 132.925 135.798 132.705 135.767 132.47C135.736 132.235 135.775 131.997 135.88 131.784C135.985 131.572 136.151 131.396 136.356 131.278C136.628 131.12 136.952 131.076 137.256 131.157C137.56 131.237 137.82 131.434 137.979 131.706Z" fill="#0056F1"/>
<path d="M137.703 131.864C137.79 132.014 137.831 132.187 137.82 132.361C137.81 132.535 137.747 132.702 137.641 132.84C137.536 132.978 137.391 133.082 137.226 133.138C137.061 133.194 136.883 133.2 136.715 133.155C136.547 133.109 136.396 133.015 136.282 132.884C136.167 132.753 136.094 132.591 136.072 132.418C136.05 132.245 136.079 132.07 136.157 131.914C136.235 131.758 136.357 131.629 136.508 131.543C136.608 131.485 136.718 131.448 136.832 131.433C136.945 131.418 137.061 131.425 137.172 131.455C137.283 131.485 137.387 131.536 137.478 131.607C137.569 131.677 137.645 131.764 137.703 131.864Z" fill="#FAFAFA"/>
</svg>
