<svg width="204" height="180" viewBox="0 0 204 180" fill="none" xmlns="http://www.w3.org/2000/svg">
<path d="M29.8781 164.024C69.7082 185.325 134.29 185.325 174.124 164.024C213.959 142.723 213.959 108.187 174.124 86.881C134.29 65.5752 69.7082 65.5796 29.8737 86.881C-9.9608 108.182 -9.95644 142.727 29.8781 164.024Z" fill="#F0F0F0"/>
<path d="M175.613 145.101C185.229 145.101 193.024 140.595 193.024 135.036C193.024 129.478 185.229 124.972 175.613 124.972C165.998 124.972 158.203 129.478 158.203 135.036C158.203 140.595 165.998 145.101 175.613 145.101Z" fill="#E0E0E0"/>
<path d="M68.1446 146.894C77.7602 146.894 85.5552 142.388 85.5552 136.829C85.5552 131.271 77.7602 126.765 68.1446 126.765C58.5289 126.765 50.7339 131.271 50.7339 136.829C50.7339 142.388 58.5289 146.894 68.1446 146.894Z" fill="#E0E0E0"/>
<path d="M10.5722 68.2116C10.6001 67.6777 10.7534 67.1578 11.0197 66.6944C11.2861 66.2309 11.6579 65.837 12.105 65.5446L90.7085 20.0999C91.1828 19.8615 91.7061 19.7373 92.2369 19.7373C92.7676 19.7373 93.291 19.8615 93.7653 20.0999L95.512 21.1011C95.9591 21.3929 96.3312 21.786 96.5983 22.2486C96.8653 22.7112 97.0198 23.2303 97.0491 23.7638V84.1002C97.0188 84.634 96.8639 85.1534 96.597 85.6165C96.33 86.0797 95.9585 86.4737 95.512 86.7672L16.9086 132.212C16.4337 132.448 15.9105 132.571 15.3802 132.571C14.8498 132.571 14.3266 132.448 13.8517 132.212L12.105 131.211C11.6578 130.918 11.2857 130.524 11.0187 130.061C10.7517 129.597 10.5972 129.078 10.5679 128.544L10.5722 68.2116Z" fill="#0056F1"/>
<path d="M93.7957 20.0996L54.9569 0.599535C54.4928 0.313502 53.9756 0.124568 53.4366 0.044133C52.8975 -0.0363019 52.3478 -0.00656977 51.8206 0.131532C51.2933 0.269635 50.7995 0.513246 50.3688 0.847669C49.9382 1.18209 49.5797 1.60039 49.3149 2.07734L11.0176 66.6941L13.0482 67.8659L95.7914 21.28L93.7957 20.0996Z" fill="#0056F1"/>
<path opacity="0.1" d="M93.7957 20.0996L54.9569 0.599535C54.4928 0.313502 53.9756 0.124568 53.4366 0.044133C52.8975 -0.0363019 52.3478 -0.00656977 51.8206 0.131532C51.2933 0.269635 50.7995 0.513246 50.3688 0.847669C49.9382 1.18209 49.5797 1.60039 49.3149 2.07734L11.0176 66.6941L13.0482 67.8659L95.7914 21.28L93.7957 20.0996Z" fill="black"/>
<path opacity="0.1" d="M10.5679 68.2067V128.543C10.5974 129.077 10.7523 129.597 11.0202 130.059C11.2881 130.522 11.6612 130.915 12.1094 131.206L13.8561 132.211C13.9963 132.286 14.1423 132.349 14.2928 132.399C14.4983 132.469 14.7105 132.518 14.926 132.544C15.3303 132.597 15.7406 132.582 16.14 132.5C16.2404 132.5 16.3409 132.452 16.4369 132.421C16.4987 132.402 16.5586 132.377 16.616 132.347C16.5005 132.398 16.3755 132.425 16.2492 132.425C16.1228 132.425 15.9978 132.398 15.8823 132.347C15.7183 132.238 15.5875 132.087 15.5043 131.908C15.421 131.73 15.3887 131.532 15.4107 131.337V71.0005C15.3951 70.7265 15.4632 70.4542 15.6059 70.2199C15.7487 69.9856 15.9593 69.8003 16.2099 69.6889L15.4107 69.2254L11.0439 66.707C10.7622 67.1591 10.5985 67.6748 10.5679 68.2067Z" fill="black"/>
<path opacity="0.1" d="M96.7042 22.4078L61.2758 79.1721L59.5291 78.8311C58.1924 78.5701 56.809 78.6969 55.5418 79.1965C54.2746 79.6961 53.1763 80.5477 52.3762 81.6511L50.2277 84.6155L16.1662 69.6757L13.0352 67.8656L95.7959 21.2798C96.174 21.5882 96.4834 21.9724 96.7042 22.4078Z" fill="black"/>
<path d="M95.7911 21.2802C95.579 21.1188 95.3558 20.9727 95.123 20.843L57.0134 1.77146C56.548 1.47972 56.0279 1.28616 55.4852 1.20264C54.9424 1.11913 54.3884 1.14741 53.8569 1.28576C53.3255 1.4241 52.8278 1.6696 52.3944 2.00723C51.961 2.34485 51.601 2.76749 51.3365 3.24926L13.0479 67.866L95.7911 21.2802Z" fill="#0056F1"/>
<path opacity="0.2" d="M96.3416 86.0192C96.7683 85.4795 97.0198 84.8219 97.0621 84.1348L61.2539 79.1724L96.3416 86.0192Z" fill="black"/>
<path opacity="0.2" d="M50.2319 84.6162L15.7338 132.234C15.616 132.115 15.5253 131.973 15.468 131.816C15.4107 131.659 15.3881 131.491 15.4019 131.324V130.669L50.2319 84.6162Z" fill="black"/>
<path d="M165.004 80.6475C170.344 76.0523 175.336 65.5853 173.912 62.3193C171.454 62.1925 169.654 63.1281 168.074 66.04C168.074 66.04 163.584 74.7844 161.065 77.3596C158.911 79.6461 156.203 81.3361 153.204 82.2652C152.55 82.3768 151.88 82.3635 151.231 82.2259C150.117 81.8849 149.484 82.1778 148.423 82.1253C147.58 82.086 147.143 81.8105 147.047 81.9942C146.958 82.2189 146.957 82.4692 147.044 82.6947C147.132 82.9202 147.301 83.1042 147.519 83.2096C147.92 83.4266 148.349 83.5869 148.794 83.6862C147.919 83.9581 147.011 84.1053 146.095 84.1234C143.912 84.189 142.986 84.9104 144.89 86.9522C145.829 87.9578 148.314 88.57 151.689 87.6649C153.126 87.1981 154.533 86.6448 155.903 86.0078C159.171 84.6532 162.234 82.849 165.004 80.6475Z" fill="#FFA8A7"/>
<path d="M182.14 144.683V144.132C181.921 144.779 180.921 147.547 179.402 148.941C178.192 150.043 176.541 151.32 176.122 152.548C175.703 153.777 178.419 154.258 179.546 154.057C180.856 153.825 182.555 153.082 183.476 151.945C184.127 151.145 184.537 150.196 185.004 149.571C185.472 148.946 186.537 148.237 186.786 147.512C186.926 147.114 186.76 146.239 186.568 145.5C186.376 144.761 186.197 144.075 185.965 144.136V144.573C185.421 145.004 184.746 145.233 184.052 145.221C183.493 145.221 182.135 145.111 182.14 144.683Z" fill="#263238"/>
<path d="M178.305 149.908L179.401 148.933C180.462 147.962 181.27 146.309 181.737 145.194C182.003 144.554 182.14 143.868 182.139 143.174V140.988H185.969V144.547V144.643C185.785 145.444 184.026 147.564 183.026 148.946C182.357 149.873 181.082 151.053 179.563 151.254C178.104 151.455 177.37 151.001 178.305 149.908Z" fill="#FFA8A7"/>
<path d="M167.192 140.91V140.359C166.978 141.006 165.973 143.774 164.454 145.168C163.244 146.27 161.598 147.547 161.178 148.775C160.759 150.004 163.471 150.485 164.602 150.284C165.912 150.052 167.611 149.309 168.532 148.172C169.178 147.372 169.593 146.423 170.056 145.798C170.519 145.173 171.589 144.486 171.842 143.739C171.978 143.341 171.816 142.466 171.624 141.727C171.432 140.988 171.253 140.302 171.021 140.363V140.8C170.476 141.231 169.799 141.46 169.104 141.448C168.55 141.439 167.187 141.347 167.192 140.91Z" fill="#263238"/>
<path d="M163.362 146.125C163.733 145.789 164.113 145.461 164.454 145.15C165.515 144.18 166.327 142.527 166.79 141.412C167.056 140.772 167.192 140.085 167.192 139.392V137.206H171.026V140.765V140.861C170.842 141.661 169.087 143.782 168.087 145.163C167.414 146.09 166.144 147.271 164.624 147.472C163.161 147.673 162.423 147.218 163.362 146.125Z" fill="#FFA8A7"/>
<path d="M185.209 85.0634C188.179 91.5562 185.1 114.44 185.1 114.44C185.192 115.494 186.41 117.566 186.847 122.21C187.375 127.688 186.017 141.447 186.017 141.447C185.432 141.786 184.774 141.977 184.099 142.004C183.424 142.03 182.753 141.892 182.144 141.6C182.144 141.6 178.493 120.867 177.803 115.42C177.205 110.663 176.056 100.204 176.056 100.204L172.785 115.393C173.263 116.926 173.609 118.497 173.82 120.089C174.13 123.294 171.03 138.221 171.03 138.221C171.03 138.221 169.72 138.706 167.196 138.334C167.196 138.334 166.1 118.528 165.812 114.663C165.327 108.179 167.047 87.9404 168.235 84.1016L185.209 85.0634Z" fill="#0056F1"/>
<path opacity="0.15" d="M176.052 100.213L175.086 94.1797C175.086 94.1797 171.008 93.3314 169.156 91.5913C169.156 91.5913 171.095 94.0091 173.982 94.8005L175.065 99.4438L173.169 113.509L176.052 100.213Z" fill="black"/>
<path d="M179.968 62.4944C183.776 62.7567 184.043 64.5974 184.995 66.613C185.69 68.1653 185.756 69.9275 185.178 71.5274L182.523 79.2137C182.523 79.2137 183.763 82.2218 185.209 85.0637C178.549 88.7845 170.23 86.8126 168.23 84.1106C168.143 83.5334 168.667 79.0301 168.977 76.092C167.802 73.1451 167.492 71.2825 167.99 69.3282C168.907 65.7167 172.475 62.1927 174.051 62.3326L179.968 62.4944Z" fill="#F0F0F0"/>
<path d="M181.978 61.4102H168.087V51.5377C168.087 49.4598 168.911 47.4669 170.379 45.9976C171.847 44.5282 173.837 43.7027 175.912 43.7027H177.305C179.381 43.7027 181.371 44.5282 182.839 45.9976C184.306 47.4669 185.131 49.4598 185.131 51.5377V58.2534C185.131 59.0906 184.799 59.8936 184.207 60.4856C183.616 61.0776 182.814 61.4102 181.978 61.4102Z" fill="#263238"/>
<path d="M183.995 44.7212L182.86 46.5756C182.978 46.6573 183.111 46.7144 183.251 46.7433C183.391 46.7722 183.536 46.7723 183.676 46.7437C183.817 46.7151 183.95 46.6584 184.068 46.5768C184.185 46.4953 184.286 46.3907 184.362 46.2694C184.512 46.0137 184.557 45.71 184.489 45.4215C184.421 45.1331 184.244 44.8822 183.995 44.7212Z" fill="#263238"/>
<path d="M185.584 46.4175L183.427 46.7411C183.441 46.8838 183.484 47.0221 183.553 47.1478C183.621 47.2734 183.715 47.3838 183.828 47.4721C183.94 47.5605 184.07 47.6249 184.208 47.6617C184.347 47.6984 184.491 47.7066 184.633 47.6858C184.923 47.6373 185.185 47.4785 185.362 47.2424C185.539 47.0062 185.619 46.7109 185.584 46.4175Z" fill="#263238"/>
<path d="M171.322 47.1567C170.422 47.6901 169.309 49.9549 169.418 54.7075C169.514 58.7387 170.815 59.7312 171.471 60.0198C172.126 60.3083 173.388 60.1291 174.615 59.9279V62.3458C174.615 62.3458 172.92 64.3176 173.025 65.4063C173.13 66.495 175.475 66.7792 177.064 65.6949C178.098 64.9527 178.986 64.0264 179.685 62.9622V57.1385C179.685 57.1385 180.51 58.2446 181.868 57.344C183.226 56.4433 183.274 54.2135 182.484 53.409C181.693 52.6045 179.999 52.8625 179.685 53.9686C179.685 53.9686 177.724 54.0386 175.117 52.6045C174.101 52.059 173.228 51.2814 172.569 50.3349C171.91 49.3884 171.482 48.2995 171.322 47.1567Z" fill="#FFA8A7"/>
<path d="M174.362 53.6975C174.353 53.7669 174.359 53.8375 174.378 53.9047C174.398 53.9719 174.431 54.0343 174.476 54.0879C174.521 54.1416 174.577 54.1854 174.639 54.2165C174.702 54.2476 174.771 54.2653 174.84 54.2687C174.91 54.272 174.98 54.2608 175.045 54.2358C175.111 54.2108 175.17 54.1725 175.22 54.1234C175.27 54.0743 175.309 54.0153 175.335 53.9503C175.361 53.8853 175.373 53.8156 175.371 53.7456C175.376 53.678 175.368 53.61 175.347 53.5456C175.326 53.4812 175.292 53.4216 175.248 53.3703C175.204 53.3191 175.15 53.2771 175.089 53.2469C175.028 53.2168 174.962 53.1989 174.895 53.1945C174.758 53.191 174.625 53.2419 174.525 53.3361C174.425 53.4303 174.367 53.5602 174.362 53.6975Z" fill="#263238"/>
<path d="M173.776 57.1123L172.602 57.4884C172.621 57.5688 172.656 57.6445 172.705 57.7107C172.755 57.7768 172.817 57.8321 172.889 57.8731C172.961 57.9141 173.04 57.94 173.122 57.949C173.204 57.9581 173.287 57.9502 173.366 57.9258C173.527 57.8718 173.661 57.756 173.738 57.6037C173.815 57.4513 173.829 57.2747 173.776 57.1123Z" fill="#F28F8F"/>
<path d="M170.196 52.1544L171.222 51.4459C171.179 51.3767 171.122 51.3169 171.056 51.2703C170.989 51.2237 170.913 51.1912 170.834 51.1748C170.754 51.1584 170.672 51.1585 170.592 51.1751C170.513 51.1916 170.437 51.2242 170.37 51.271C170.233 51.3674 170.139 51.513 170.106 51.6776C170.074 51.8422 170.106 52.013 170.196 52.1544Z" fill="#263238"/>
<path d="M170.449 53.3305C170.446 53.3971 170.456 53.4637 170.479 53.5265C170.501 53.5893 170.536 53.647 170.581 53.6963C170.625 53.7456 170.68 53.7857 170.74 53.8141C170.8 53.8425 170.865 53.8587 170.932 53.8619C170.998 53.8651 171.065 53.8551 171.128 53.8325C171.19 53.8099 171.248 53.7752 171.297 53.7303C171.346 53.6855 171.386 53.6313 171.415 53.571C171.443 53.5106 171.459 53.4453 171.462 53.3786C171.466 53.312 171.456 53.2454 171.433 53.1827C171.41 53.1199 171.376 53.0622 171.331 53.0129C171.286 52.9635 171.232 52.9235 171.172 52.8951C171.112 52.8667 171.046 52.8504 170.98 52.8472C170.913 52.8441 170.847 52.8541 170.784 52.8767C170.722 52.8992 170.664 52.934 170.615 52.9788C170.565 53.0237 170.525 53.0779 170.497 53.1382C170.469 53.1986 170.452 53.2639 170.449 53.3305Z" fill="#263238"/>
<path d="M172.921 53.042L172.842 56.0894L171.235 55.5954L172.921 53.042Z" fill="#F28F8F"/>
<path d="M174.616 59.9284C175.926 59.7579 178.572 58.9925 178.983 57.9385C178.817 58.4699 178.494 58.9382 178.057 59.2812C177.262 59.9634 174.62 60.7332 174.62 60.7332L174.616 59.9284Z" fill="#F28F8F"/>
<path d="M178.266 85.7851C178.788 85.6652 179.28 85.4422 179.715 85.129C180.149 84.8158 180.517 84.4189 180.796 83.9614C181.075 83.504 181.26 82.9953 181.34 82.4653C181.42 81.9353 181.393 81.3947 181.261 80.8751C181.243 80.804 181.222 80.734 181.196 80.6653C181.104 80.3861 180.921 80.1459 180.676 79.9834C180.431 79.8208 180.139 79.7453 179.847 79.769C180.273 79.485 180.64 79.1194 180.926 78.6933C181.211 78.2671 181.41 77.7887 181.51 77.2855L182.318 72.4761C182.417 71.6907 182.347 70.8933 182.113 70.137L184.79 67.0371L185.288 67.3825C185.691 68.7438 185.653 70.1979 185.179 71.5361L182.524 79.2224C182.524 79.2224 183.764 82.2305 185.209 85.0724C183.042 86.2382 180.65 86.9256 178.196 87.0885C175.741 87.2514 173.28 86.886 170.978 86.0168C173.4 86.3975 175.872 86.3189 178.266 85.7851Z" fill="#E6E6E6"/>
<path d="M192.03 81.6268C188.572 67.4784 186.013 62.7608 181.812 62.8264C180.589 64.2954 180.938 68.7288 182.864 71.4177C182.864 71.4177 187.183 80.5425 187.873 83.7867C188.48 86.6374 189.183 90.2226 189.122 92.6754C189.109 93.1088 188.938 93.5225 188.641 93.8384C187.855 94.7128 187.851 95.3861 187.331 96.3349C186.93 97.0738 186.493 97.3536 186.615 97.5198C186.78 97.7003 187.007 97.8108 187.251 97.8287C187.495 97.8466 187.736 97.7705 187.925 97.616C188.296 97.3479 188.628 97.0302 188.912 96.6716C188.775 97.5782 188.512 98.4612 188.13 99.2949C187.257 101.297 187.458 102.32 190.161 101.608C191.851 101.171 192.912 99.7496 193.165 95.6791C193.289 94.1795 193.303 92.673 193.209 91.1713C192.842 87.2976 192.58 83.9047 192.03 81.6268Z" fill="#FFA8A7"/>
<path d="M161.536 16.02C157.897 16.0216 154.391 17.3874 151.71 19.8479C149.029 22.3084 147.368 25.6846 147.054 29.3101C146.741 32.9355 147.799 36.5466 150.018 39.4304C152.237 42.3143 155.457 44.2611 159.042 44.8867L160.646 49.1005C160.708 49.2589 160.816 49.395 160.957 49.491C161.097 49.5869 161.264 49.6382 161.434 49.6382C161.604 49.6382 161.77 49.5869 161.911 49.491C162.051 49.395 162.16 49.2589 162.222 49.1005L163.865 44.8907C167.468 44.2988 170.716 42.3734 172.964 39.497C175.213 36.6206 176.297 33.0038 176.001 29.3649C175.706 25.7261 174.053 22.3315 171.37 19.8554C168.687 17.3794 165.171 16.0031 161.52 16L161.536 16.02ZM174.903 30.5977C174.898 33.9992 173.594 37.2705 171.258 39.7429L170.144 40.7973C167.574 42.9732 164.279 44.1018 160.915 43.9586C157.551 43.8153 154.364 42.4106 151.989 40.0241C149.613 37.6376 148.224 34.4441 148.096 31.0793C147.968 27.7146 149.112 24.4251 151.3 21.8656L152.379 20.759C154.29 18.975 156.681 17.7891 159.257 17.3475C161.834 16.9059 164.484 17.228 166.879 18.2739C169.275 19.3199 171.313 21.0441 172.741 23.2339C174.168 25.4237 174.924 27.9835 174.915 30.5977H174.903Z" fill="#455A64"/>
<path d="M174.902 30.5975C174.898 33.999 173.594 37.2702 171.258 39.7426L170.143 40.7971C167.574 42.973 164.279 44.1016 160.915 43.9583C157.551 43.8151 154.364 42.4104 151.988 40.0239C149.613 37.6373 148.223 34.4439 148.096 31.0791C147.968 27.7143 149.112 24.4249 151.3 21.8653L152.378 20.7588C154.289 18.9747 156.68 17.7888 159.257 17.3473C161.834 16.9057 164.483 17.2277 166.879 18.2737C169.275 19.3197 171.312 21.0438 172.74 23.2337C174.168 25.4235 174.924 27.9833 174.914 30.5975H174.902Z" fill="white"/>
<path d="M159.471 39.1373C159.185 39.1376 158.901 39.0791 158.639 38.9653C158.376 38.8515 158.139 38.6848 157.944 38.4758L153.205 33.4121C153.017 33.2117 152.871 32.9764 152.774 32.7195C152.677 32.4626 152.632 32.1891 152.641 31.9147C152.65 31.6403 152.713 31.3704 152.826 31.1203C152.939 30.8703 153.1 30.6449 153.301 30.4572C153.501 30.2695 153.737 30.1231 153.993 30.0264C154.25 29.9296 154.524 29.8844 154.798 29.8934C155.073 29.9023 155.342 29.9652 155.593 30.0785C155.843 30.1917 156.068 30.3531 156.256 30.5535L159.335 33.8411L166.624 24.6198C166.972 24.1985 167.472 23.9305 168.016 23.8729C168.559 23.8154 169.104 23.973 169.533 24.312C169.962 24.6509 170.242 25.1443 170.312 25.6866C170.381 26.2289 170.236 26.7771 169.907 27.2137L161.115 38.3515C160.929 38.5897 160.694 38.7847 160.425 38.9232C160.157 39.0616 159.861 39.1401 159.559 39.1533L159.471 39.1373Z" fill="#0056F1"/>
<path d="M96.1411 58.247C95.4774 58.7979 94.7175 59.0777 93.8441 59.9303C93.2917 60.5589 92.5948 61.0436 91.8136 61.3425C90.8048 61.7404 89.8572 61.6224 87.0624 61.1764C83.6388 60.6255 82.1672 60.0527 80.6912 58.7892C78.9663 57.3157 75.1103 52.8736 73.2413 51.1247C71.2719 49.2796 68.5557 49.9923 68.5557 49.9923C69.3954 52.7283 70.6439 55.3212 72.2588 57.683C73.7522 59.8123 76.5426 61.8497 77.809 62.9034C79.8265 64.5867 80.9008 65.2513 85.3419 65.5836C88.6912 65.8372 89.1367 65.9202 91.8922 65.8372C92.8834 65.8066 93.5035 65.7978 95.1236 65.6623C95.8295 65.6207 96.5283 65.499 97.2066 65.2994C97.9748 65.1212 98.7111 64.8263 99.3901 64.4249C100.277 63.8486 100.992 63.0436 101.46 62.0946C101.719 61.5748 101.851 61.0008 101.844 60.42C101.839 59.8359 101.625 59.2728 101.242 58.8329C101.169 58.7403 101.072 58.6693 100.962 58.6274C100.752 58.5893 100.536 58.6348 100.359 58.7542C99.3071 59.2963 98.2503 60.0352 97.1542 60.4594C96.2241 60.8179 95.521 60.9403 95.5865 60.7523C95.652 60.5643 96.2153 60.3938 96.7918 59.7423C97.3682 59.0909 97.5123 58.1858 97.1411 57.906C96.7699 57.6262 96.8092 57.6961 96.1411 58.247Z" fill="#B16668"/>
<path d="M67.7607 49.9792C68.8164 49.4713 70.0141 49.3417 71.1538 49.6119C72.9005 50.106 74.2674 51.2384 75.9137 53.0048C77.56 54.7711 80.3373 57.6393 80.3373 57.6393C80.3373 57.6393 78.9705 61.1064 75.8962 62.335L69.4507 56.367L67.7607 49.9792Z" fill="#455A64"/>
<path d="M58.2899 135.902H62.1982V129.204H58.2899V135.902Z" fill="#B16668"/>
<path d="M69.1064 130.891L73.0104 131.027L73.2069 123.939L69.1064 123.804V130.891Z" fill="#B16668"/>
<path d="M56.6301 79.2032C56.6301 82.937 57.2895 104.667 57.2895 104.667C57.1978 105.742 56.1628 107.653 56.0842 111.527C55.9663 117.141 58.1279 132.557 58.1279 132.557C58.8047 132.892 59.5468 133.074 60.3016 133.089C61.0564 133.104 61.8052 132.952 62.4948 132.645C62.4948 132.645 64.2677 111.745 64.9664 106.188C65.5778 101.335 66.6127 88.1574 66.6127 88.1574L68.4556 103.994C68.0033 106.033 67.8401 108.126 67.9708 110.211C68.1542 112.782 68.8748 128.701 68.8748 128.701C69.5553 129.086 70.3122 129.317 71.0918 129.377C71.8714 129.436 72.6546 129.324 73.3857 129.046C73.3857 129.046 76.1412 106.355 76.1893 103.994C76.2417 101.305 75.1674 73.856 75.1674 73.856L56.6301 79.2032Z" fill="#37474F"/>
<path d="M59.1976 51.7146C58.3361 52.0961 57.6587 52.8011 57.3111 53.6777C56.911 54.7586 56.717 55.9049 56.7391 57.0574V64.7263L56.6299 79.1982C62.2369 82.1582 69.368 82.355 75.3506 77.9828C75.3506 77.9828 75.0144 59.3528 75.0144 56.3054C75.0144 56.1655 75.0144 56.0256 75.0144 55.8682C74.796 51.496 70.5165 48.5273 66.3025 49.6116L62.761 50.5254L59.1976 51.7146Z" fill="#F0F0F0"/>
<path d="M74.4527 38.6898C75.1341 35.7991 73.3461 32.9027 70.4589 32.2205C67.5718 31.5382 64.6789 33.3285 63.9975 36.2191C63.3161 39.1098 65.1042 42.0062 67.9913 42.6885C70.8784 43.3707 73.7713 41.5805 74.4527 38.6898Z" fill="#263238"/>
<path d="M59.9448 41.2827C59.9448 41.2827 60.8182 45.3751 61.1675 46.0484C61.396 46.4689 61.7802 46.7829 62.2374 46.9229L62.1763 44.0459L59.9448 41.2827Z" fill="#263238"/>
<path d="M61.0362 35.4196C60.7326 35.3837 60.4248 35.4179 60.1365 35.5194C59.8481 35.621 59.5867 35.7872 59.3724 36.0054C58.6562 36.74 59.0536 39.0354 59.9445 41.2827L61.5864 41.4707L61.0362 35.4196Z" fill="#263238"/>
<path d="M62.0757 41.4708C61.7482 41.6675 61.2809 41.0336 60.8748 40.5963C60.4687 40.1591 59.128 39.5951 58.4861 40.9855C57.8442 42.3758 59.0669 44.2777 60.1106 44.6056C61.9054 45.1697 62.1761 44.0198 62.1761 44.0198L62.3071 50.7005C64.5386 53.5643 70.7351 53.3238 68.1543 50.3289V48.357C68.9553 48.486 69.7679 48.5285 70.5779 48.4838C71.888 48.2783 72.7264 47.2333 73.1282 45.8036C73.7701 43.5039 74.0016 41.65 73.4688 37.1292C72.8705 32.1755 67.115 32.123 64.0102 34.0686C60.9054 36.0143 62.0757 41.4708 62.0757 41.4708Z" fill="#B16668"/>
<path d="M62.0754 42.0396C61.9094 42.0396 61.285 40.999 60.8745 40.623C60.3068 40.1071 61.0361 35.4332 61.0361 35.4332C60.8885 35.028 60.862 34.5886 60.9597 34.1686C61.0574 33.7485 61.2751 33.3661 61.5863 33.0678C62.3636 32.1934 63.2064 31.6687 65.4466 31.5507C66.9776 31.5448 68.508 31.6163 70.0318 31.7649C72.2458 31.9136 73.058 31.3714 74.3288 31.0129C75.3026 30.7418 75.4118 34.2527 72.9576 35.4157C72.9576 35.4157 72.1585 35.9316 70.0536 36.1896C68.1127 36.3363 66.1623 36.2997 64.2282 36.0803C63.6213 35.9972 63.4903 36.5875 63.1584 38.2052C62.8702 39.6087 62.6343 42.0134 62.0754 42.0396Z" fill="#263238"/>
<path d="M61.0406 35.7833L59.0537 34.7118C59.1176 34.5779 59.208 34.4583 59.3193 34.3604C59.4306 34.2624 59.5606 34.1881 59.7015 34.1419C59.8423 34.0957 59.991 34.0786 60.1386 34.0916C60.2862 34.1046 60.4297 34.1475 60.5603 34.2175C60.8262 34.3664 61.0245 34.6123 61.114 34.9039C61.2034 35.1956 61.1772 35.5105 61.0406 35.7833Z" fill="#263238"/>
<path d="M68.1455 48.3703C68.1455 48.3703 65.2022 47.7756 64.1716 47.2291C63.5659 46.9111 63.0687 46.4194 62.7437 45.8169C62.9017 46.4205 63.1778 46.9867 63.5559 47.4827C64.307 48.4446 68.1455 49.1573 68.1455 49.1573V48.3703Z" fill="#9A4A4D"/>
<path d="M68.0013 40.7276C68.0013 40.8052 67.9861 40.8819 67.9564 40.9536C67.9268 41.0252 67.8834 41.0903 67.8286 41.1451C67.7739 41.2 67.7089 41.2435 67.6374 41.2731C67.5659 41.3028 67.4892 41.3181 67.4118 41.3181C67.3344 41.3181 67.2577 41.3028 67.1862 41.2731C67.1147 41.2435 67.0497 41.2 66.9949 41.1451C66.9402 41.0903 66.8968 41.0252 66.8671 40.9536C66.8375 40.8819 66.8223 40.8052 66.8223 40.7276C66.8223 40.6501 66.8375 40.5733 66.8671 40.5017C66.8968 40.4301 66.9402 40.365 66.9949 40.3101C67.0497 40.2553 67.1147 40.2118 67.1862 40.1822C67.2577 40.1525 67.3344 40.1372 67.4118 40.1372C67.4892 40.1372 67.5659 40.1525 67.6374 40.1822C67.7089 40.2118 67.7739 40.2553 67.8286 40.3101C67.8834 40.365 67.9268 40.4301 67.9564 40.5017C67.9861 40.5733 68.0013 40.6501 68.0013 40.7276Z" fill="#263238"/>
<path d="M67.377 38.5024L66.1149 39.2022C66.0233 39.0287 66.0027 38.8263 66.0572 38.6378C66.1118 38.4493 66.2374 38.2894 66.4075 38.1919C66.4912 38.1469 66.583 38.1191 66.6776 38.1104C66.7722 38.1017 66.8676 38.1121 66.958 38.1411C67.0485 38.1701 67.1322 38.217 67.2042 38.2791C67.2762 38.3412 67.3349 38.4171 67.377 38.5024Z" fill="#263238"/>
<path d="M67.8791 44.8198L69.2285 45.3228C69.1982 45.4127 69.1502 45.4956 69.0873 45.5665C69.0244 45.6375 68.9479 45.695 68.8624 45.7358C68.7768 45.7766 68.684 45.7998 68.5894 45.804C68.4947 45.8081 68.4002 45.7932 68.3114 45.7601C68.1336 45.6878 67.9899 45.5503 67.9096 45.3756C67.8293 45.201 67.8184 45.0022 67.8791 44.8198Z" fill="#9A4A4D"/>
<path d="M73.0977 38.9793L71.9448 38.1046C71.9994 38.0268 72.0691 37.9608 72.1498 37.9108C72.2305 37.8607 72.3205 37.8275 72.4144 37.8132C72.5082 37.7989 72.604 37.8038 72.6959 37.8275C72.7878 37.8513 72.874 37.8935 72.9492 37.9515C73.0993 38.0721 73.1981 38.2453 73.2257 38.4361C73.2532 38.6269 73.2075 38.821 73.0977 38.9793Z" fill="#263238"/>
<path d="M72.7347 40.5659C72.7305 40.6827 72.6919 40.7956 72.6239 40.8906C72.5559 40.9856 72.4614 41.0584 72.3524 41.1C72.2433 41.1415 72.1244 41.15 72.0106 41.1242C71.8967 41.0985 71.793 41.0398 71.7123 40.9554C71.6316 40.8709 71.5775 40.7646 71.5568 40.6496C71.5361 40.5345 71.5497 40.4159 71.5959 40.3086C71.642 40.2013 71.7188 40.11 71.8165 40.046C71.9142 39.9821 72.0285 39.9485 72.1452 39.9492C72.2245 39.9504 72.3028 39.9673 72.3756 39.999C72.4483 40.0307 72.514 40.0766 72.5689 40.134C72.6237 40.1914 72.6666 40.2591 72.6951 40.3333C72.7236 40.4074 72.7371 40.4865 72.7347 40.5659Z" fill="#263238"/>
<path d="M69.7349 40.0063L69.927 43.5609L71.7829 42.927L69.7349 40.0063Z" fill="#9A4A4D"/>
<path d="M62.202 133.974V133.418C62.5732 133.58 63.4422 136.916 64.9925 138.315C66.2239 139.439 67.9052 140.737 68.3331 141.992C68.7611 143.247 65.9925 144.021 64.8396 143.815C63.5034 143.579 61.1846 142.635 60.6038 141.76C60.023 140.886 59.7304 139.596 59.2937 138.958C58.857 138.32 57.7304 137.598 57.4727 136.859C57.333 136.453 57.4989 135.548 57.6954 134.804C57.892 134.061 58.0754 133.353 58.3112 133.418V133.856C58.8659 134.295 59.5558 134.528 60.2632 134.516C60.8178 134.52 62.2064 134.411 62.202 133.974Z" fill="#263238"/>
<path d="M73.0538 129.82C73.2547 129.82 73.4206 130.113 73.8661 130.598C74.5359 131.275 75.3136 131.835 76.1674 132.255C77.6303 132.99 80.4731 134.118 81.7613 134.695C82.5649 135.058 82.5256 136.033 81.6958 136.584C80.8661 137.135 78.8574 137.537 76.4556 136.999C75.1456 136.706 73.4337 135.491 72.3508 135.556C71.2678 135.622 69.2459 135.604 68.4468 135.053C67.6477 134.503 67.9708 133.326 68.1935 132.316C68.4424 131.21 68.7481 129.492 69.1149 129.566V129.947C69.5822 130.659 72.0058 130.948 73.0451 130.423L73.0538 129.82Z" fill="#263238"/>
<path d="M66.5952 88.153C68.6152 87.5236 70.4726 86.458 72.0363 85.0312C72.0363 85.0312 70.9883 86.9987 67.866 88.8307L68.3027 102.66L66.5952 88.153Z" fill="#263238"/>
<path d="M142.788 5.27798C142.722 4.7883 142.325 4.60904 141.853 4.88448L90.5295 34.5586C90.2512 34.7352 90.0215 34.9787 89.8613 35.2669L88.0884 34.2394C88.2473 33.9515 88.4773 33.7091 88.7565 33.5355L140.08 3.86139C140.34 3.68966 140.642 3.59077 140.953 3.57499C141.264 3.55921 141.574 3.62711 141.85 3.77164C142.127 3.91617 142.359 4.13207 142.524 4.39695C142.689 4.66182 142.78 4.96602 142.788 5.27798Z" fill="#FAFAFA"/>
<path d="M90.3504 128.981C90.1712 129.047 89.9852 129.092 89.7958 129.117C89.4184 129.168 89.0344 129.102 88.6953 128.929C88.4348 128.748 88.2201 128.509 88.0684 128.23C87.9168 127.951 87.8324 127.641 87.8219 127.324V35.1754C87.8198 35.1375 87.8198 35.0996 87.8219 35.0617C87.8308 34.9824 87.8439 34.9036 87.8612 34.8256C87.9136 34.6207 87.9929 34.4237 88.0971 34.2397L89.87 35.2672C89.7008 35.5492 89.6061 35.8697 89.5949 36.1985V128.347C89.5949 128.784 89.8089 129.025 90.1145 129.025C90.1552 129.029 90.1962 129.029 90.2368 129.025C90.276 129.014 90.314 128.999 90.3504 128.981Z" fill="#E0E0E0"/>
<path d="M89.5859 36.2026V128.351C89.5859 128.954 90.0226 129.199 90.5292 128.893L141.853 99.2235C142.127 99.0433 142.356 98.801 142.52 98.5162C142.683 98.2314 142.778 97.9121 142.796 97.584V5.43545C142.796 4.83209 142.359 4.58724 141.853 4.88893L90.5292 34.5631C90.2535 34.742 90.0242 34.984 89.8602 35.269C89.6962 35.5541 89.6022 35.8741 89.5859 36.2026Z" fill="#FAFAFA"/>
<path d="M99.3114 48.0552C99.2227 47.9278 99.1839 47.7722 99.2022 47.618V38.3621C99.1945 38.1639 99.2319 37.9666 99.3114 37.7849C99.385 37.6256 99.5073 37.4939 99.6607 37.4089L100.416 36.9717C100.588 36.8755 100.706 36.8624 100.77 36.9324C100.858 37.0696 100.896 37.2338 100.875 37.3958V46.643C100.882 46.8365 100.846 47.0291 100.77 47.207C100.695 47.3656 100.571 47.4958 100.416 47.5787L99.6607 48.0159C99.4991 48.1077 99.3725 48.1208 99.3114 48.0552Z" fill="#0056F1"/>
<path d="M102.264 46.3462C102.177 46.2179 102.14 46.0626 102.159 45.909V36.6356C102.153 36.4408 102.189 36.2469 102.264 36.0672C102.343 35.91 102.468 35.7805 102.622 35.6955L103.251 35.337C103.281 35.3043 103.319 35.2799 103.361 35.2659C103.403 35.252 103.448 35.249 103.492 35.2573C103.536 35.2656 103.577 35.2849 103.611 35.3134C103.645 35.3419 103.671 35.3786 103.687 35.4201L106.522 39.9453V34.1259C106.516 33.9283 106.552 33.7317 106.626 33.5488C106.7 33.3908 106.823 33.2605 106.976 33.1771L107.736 32.7399C107.901 32.6394 108.019 32.6263 108.089 32.6962C108.173 32.8353 108.208 32.9983 108.19 33.1597V42.4112C108.195 42.6042 108.161 42.7962 108.089 42.9752C108.012 43.1314 107.889 43.2598 107.736 43.3425L107.098 43.7098C107.067 43.7423 107.029 43.7663 106.986 43.7797C106.943 43.793 106.898 43.7952 106.854 43.786C106.81 43.7768 106.77 43.7565 106.736 43.7271C106.702 43.6977 106.676 43.6601 106.661 43.618L103.818 39.119V44.934C103.825 45.1284 103.79 45.3219 103.718 45.5024C103.642 45.6594 103.518 45.7881 103.364 45.8696L102.604 46.3069C102.452 46.4118 102.334 46.4118 102.264 46.3462Z" fill="#0056F1"/>
<path d="M112.036 40.7717C111.958 40.6998 111.904 40.6049 111.883 40.5007L109.324 32.3421C109.306 32.2661 109.296 32.1885 109.294 32.1104C109.286 32.0374 109.299 31.9639 109.332 31.8981C109.364 31.8323 109.415 31.7771 109.477 31.7388L110.691 31.0348C110.787 30.9824 110.857 30.9693 110.909 31.0042C110.968 31.0553 111.008 31.1246 111.023 31.201L112.643 36.9592L114.263 29.3297C114.275 29.2171 114.312 29.1087 114.372 29.0125C114.432 28.9164 114.512 28.835 114.608 28.7744L115.822 28.0705C115.94 28.0005 116.001 28.0705 116.001 28.2323C116 28.322 115.99 28.4113 115.97 28.499L113.425 39.6087C113.393 39.7611 113.34 39.9082 113.267 40.046C113.207 40.1455 113.121 40.227 113.018 40.282L112.28 40.7193C112.167 40.7849 112.084 40.8023 112.036 40.7717Z" fill="#0056F1"/>
<path d="M117.198 37.7154C117.111 37.5871 117.073 37.4323 117.089 37.2782V28.0222C117.084 27.8243 117.121 27.6275 117.198 27.4451C117.272 27.2858 117.394 27.1541 117.548 27.0691L118.303 26.6319C118.473 26.5357 118.591 26.5226 118.661 26.5925C118.746 26.7314 118.781 26.8946 118.762 27.056V36.3032C118.768 36.4962 118.734 36.6884 118.661 36.8672C118.582 37.0243 118.457 37.1539 118.303 37.2388L117.548 37.6761C117.386 37.7679 117.277 37.781 117.198 37.7154Z" fill="#0056F1"/>
<path d="M121.831 35.044C121.745 34.9157 121.708 34.7604 121.727 34.6068V26.5576L120.067 27.5195C119.906 27.6113 119.792 27.6244 119.731 27.5632C119.655 27.4306 119.623 27.2777 119.639 27.126V26.5489C119.631 26.3551 119.662 26.1618 119.731 25.9805C119.803 25.8311 119.921 25.7087 120.067 25.6307L125.063 22.745C125.224 22.6489 125.338 22.6357 125.403 22.7013C125.484 22.8416 125.518 23.004 125.5 23.1648V23.7375C125.506 23.9273 125.473 24.1162 125.403 24.2928C125.33 24.4436 125.21 24.5674 125.063 24.647L123.403 25.6045V33.6362C123.411 33.8311 123.375 34.0253 123.299 34.2046C123.221 34.3632 123.096 34.4933 122.941 34.5762L122.189 35.0134C122.019 35.0878 121.901 35.1053 121.831 35.044Z" fill="#0056F1"/>
<path d="M126.486 32.346C126.398 32.2186 126.359 32.063 126.377 31.9088V22.6528C126.369 22.4547 126.407 22.2573 126.486 22.0757C126.559 21.9168 126.681 21.7862 126.836 21.7041L131.032 19.2731C131.194 19.1813 131.307 19.1682 131.368 19.2294C131.44 19.3633 131.47 19.5154 131.456 19.6666V20.2438C131.463 20.437 131.433 20.6299 131.368 20.8121C131.296 20.9615 131.178 21.084 131.032 21.1619L128.05 22.8846V25.3505L130.132 24.1438C130.294 24.0519 130.403 24.0345 130.464 24.1C130.54 24.2326 130.572 24.3855 130.556 24.5373V25.0838C130.564 25.2761 130.533 25.468 130.464 25.6478C130.395 25.7979 130.279 25.9209 130.132 25.9976L128.05 27.2043V29.6833L131.023 27.9651C131.185 27.8689 131.294 27.8601 131.355 27.9257C131.434 28.0667 131.466 28.2289 131.447 28.3892V28.9488C131.456 29.1397 131.425 29.3304 131.355 29.5084C131.284 29.6551 131.168 29.7748 131.023 29.8495L126.836 32.2717C126.674 32.4203 126.556 32.4203 126.486 32.346Z" fill="#0056F1"/>
<path d="M99.3989 55.8687L132.997 36.4561C133.521 36.15 133.945 36.3949 133.945 37.0026V37.8771C133.926 38.2055 133.831 38.525 133.666 38.8097C133.502 39.0945 133.273 39.3366 132.997 39.5166L99.412 58.9336C98.8879 59.2353 98.4644 58.9904 98.4644 58.387V57.5126C98.48 57.1843 98.5728 56.8644 98.7352 56.5787C98.8976 56.2931 99.125 56.0498 99.3989 55.8687Z" fill="#E0E0E0"/>
<path d="M104.722 62.497L127.661 49.2361C128.185 48.9344 128.609 49.1793 128.609 49.7826V50.6571C128.591 50.9858 128.496 51.3056 128.331 51.5905C128.166 51.8754 127.937 52.1174 127.661 52.2966L104.722 65.5531C104.198 65.8548 103.774 65.61 103.774 65.0066V64.1322C103.793 63.8042 103.888 63.4853 104.053 63.2012C104.218 62.9171 104.447 62.6758 104.722 62.497Z" fill="#E6E6E6"/>
<path d="M104.722 68.732L127.661 55.4755C128.194 55.1563 128.631 55.4186 128.631 56.0308V56.9052C128.613 57.2339 128.518 57.5537 128.353 57.8387C128.188 58.1236 127.959 58.3655 127.683 58.5448L104.744 71.8057C104.22 72.1073 103.796 71.8625 103.796 71.2591V70.3847C103.81 70.0557 103.901 69.7345 104.061 69.4473C104.222 69.1601 104.449 68.915 104.722 68.732Z" fill="#E6E6E6"/>
<path d="M104.722 74.9711L127.661 61.7146C128.185 61.4129 128.609 61.6578 128.609 62.2611V63.1356C128.591 63.4643 128.496 63.7841 128.331 64.069C128.166 64.3539 127.937 64.5959 127.661 64.7752L104.722 78.0317C104.198 78.3333 103.774 78.0885 103.774 77.4851V76.6107C103.792 76.282 103.887 75.9622 104.052 75.6772C104.217 75.3923 104.446 75.1504 104.722 74.9711Z" fill="#E6E6E6"/>
<path d="M99.3989 87.882L132.997 68.4651C133.521 68.1634 133.945 68.4083 133.945 69.0116V69.8861C133.926 70.2145 133.831 70.534 133.666 70.8187C133.502 71.1035 133.273 71.3456 132.997 71.5256L99.412 90.9426C98.8879 91.2443 98.4644 90.9994 98.4644 90.3961V89.5216C98.4807 89.1941 98.5738 88.875 98.7362 88.5902C98.8985 88.3053 99.1255 88.0628 99.3989 87.882Z" fill="#E0E0E0"/>
<path d="M104.722 94.5365L127.661 81.2756C128.185 80.974 128.609 81.2188 128.609 81.8222V82.6966C128.591 83.0253 128.496 83.3451 128.331 83.6301C128.166 83.915 127.937 84.1569 127.661 84.3362L104.722 97.6102C104.198 97.9119 103.774 97.667 103.774 97.0637V96.1892C103.79 95.8583 103.884 95.5358 104.049 95.2484C104.214 94.9611 104.445 94.7171 104.722 94.5365Z" fill="#E6E6E6"/>
<path d="M104.722 100.771L127.661 87.5103C128.185 87.2086 128.609 87.4491 128.609 88.0568V88.9313C128.591 89.26 128.496 89.5798 128.331 89.8647C128.166 90.1497 127.937 90.3916 127.661 90.5709L104.722 103.832C104.198 104.133 103.774 103.889 103.774 103.285V102.411C103.792 102.082 103.887 101.762 104.052 101.477C104.217 101.192 104.446 100.95 104.722 100.771Z" fill="#E6E6E6"/>
<path d="M104.722 107.011L127.661 93.7498C128.185 93.4481 128.609 93.6929 128.609 94.2963V95.1707C128.591 95.4994 128.496 95.8193 128.331 96.1042C128.166 96.3891 127.937 96.631 127.661 96.8103L104.722 110.067C104.198 110.369 103.774 110.124 103.774 109.52V108.646C103.793 108.318 103.888 107.999 104.053 107.715C104.218 107.431 104.447 107.189 104.722 107.011Z" fill="#E6E6E6"/>
<path d="M87.1758 68.0801C86.4421 68.5173 85.6474 68.7053 84.6648 69.4267C83.7914 70.0607 83.4159 70.0651 82.4421 70.3012C81.3897 70.5591 73.0446 68.0888 71.5861 66.8034C69.3153 64.8184 65.2934 57.6568 63.7912 55.9385C62.5554 54.5219 60.8392 52.6025 59.3152 52.5938C56.7955 53.3589 57.3676 57.1102 59.4724 60.4856C61.2191 63.2794 64.8087 68.8583 68.5555 71.3199C70.3721 72.5135 79.2543 74.6165 82.036 74.7958C82.8788 74.8526 84.3766 75.233 85.7041 75.303C87.0057 75.4245 88.3163 75.1998 89.5033 74.6515C90.4617 74.2057 91.2824 73.5094 91.8789 72.6359C92.2052 72.1542 92.4159 71.6036 92.4946 71.027C92.5666 70.447 92.4321 69.8603 92.1147 69.3699C92.0534 69.2699 91.9678 69.1871 91.8658 69.1294C91.6627 69.0632 91.4418 69.0789 91.25 69.1731C90.1365 69.5623 88.988 70.1481 87.8395 70.4148C86.8701 70.6378 86.1539 70.6641 86.25 70.4892C86.3461 70.3143 86.9225 70.2181 87.5819 69.6541C87.6628 69.5869 87.7387 69.5138 87.809 69.4355V67.6866C87.5906 67.8056 87.3792 67.937 87.1758 68.0801Z" fill="#B16668"/>
<path d="M59.1579 51.7198C57.2933 52.6293 56.5378 54.0196 57.3675 57.1195C58.1099 59.9002 60.9571 64.6397 63.1973 66.9613C63.1973 66.9613 67.027 65.1425 69.0707 62.7815C67.0488 59.686 66.0794 57.8672 64.1798 55.2482C62.2802 52.6293 60.2933 51.405 59.1579 51.7198Z" fill="#455A64"/>
</svg>
