<svg width="144" height="40" viewBox="0 0 144 40" fill="none" xmlns="http://www.w3.org/2000/svg">
<g clip-path="url(#clip0_2_25)">
<path d="M54.0121 25.7489H59.1109C59.3318 25.7489 59.5109 25.928 59.5109 26.1489V28.0752C59.5109 28.2962 59.3318 28.4752 59.1109 28.4752H51.065C50.8441 28.4752 50.665 28.2962 50.665 28.0752V11.7311C50.665 11.5102 50.8441 11.3311 51.065 11.3311H53.6121C53.833 11.3311 54.0121 11.5102 54.0121 11.7311V25.7489ZM73.9509 21.3769C73.9509 21.7323 73.9342 22.062 73.9009 22.366C73.8795 22.561 73.7111 22.7032 73.5149 22.7032H64.1726C64.2523 23.6857 64.587 24.4553 65.1767 25.012C65.7665 25.5688 66.4917 25.8471 67.3524 25.8471C68.5081 25.8471 69.3539 25.3731 69.8898 24.425C69.9655 24.291 70.1041 24.2015 70.258 24.2015H73.0827C73.3494 24.2015 73.5416 24.458 73.4468 24.7073C73.0344 25.7922 72.3577 26.7044 71.4167 27.4436C70.3328 28.2787 69.002 28.6963 67.4241 28.6963C66.149 28.6963 65.0014 28.4098 63.9814 27.8366C62.9772 27.2472 62.1883 26.4203 61.6145 25.3559C61.0566 24.2916 60.7777 23.0635 60.7777 21.6716C60.7777 20.2634 61.0566 19.0272 61.6145 17.9628C62.1723 16.8985 62.9533 16.0797 63.9574 15.5066C64.9616 14.9335 66.117 14.647 67.4241 14.647C68.6832 14.647 69.8069 14.9253 70.7951 15.4821C71.7992 16.0388 72.5721 16.833 73.1142 17.8646C73.6719 18.8798 73.9509 20.0506 73.9509 21.3769ZM70.4843 20.3944C70.4683 19.5102 70.1575 18.8061 69.5519 18.2821C68.9462 17.7417 68.205 17.4716 67.3285 17.4716C66.4996 17.4716 65.7983 17.7336 65.2246 18.2575C64.6667 18.7651 64.324 19.4774 64.1965 20.3944H70.4843ZM80.291 17.6926V24.2752C80.291 24.7337 80.3946 25.0694 80.6018 25.2822C80.825 25.4787 81.1914 25.577 81.7015 25.577H82.8555C83.0764 25.577 83.2555 25.756 83.2555 25.977V28.0752C83.2555 28.2962 83.0764 28.4752 82.8555 28.4752H81.1516C78.3305 28.4752 76.92 27.067 76.92 24.2506V17.6926H75.742C75.5211 17.6926 75.342 17.5135 75.342 17.2926V15.268C75.342 15.0471 75.5211 14.868 75.742 14.868H76.92V11.9031C76.92 11.6821 77.099 11.5031 77.32 11.5031H79.891C80.1119 11.5031 80.291 11.6821 80.291 11.9031V14.868H82.8555C83.0764 14.868 83.2555 15.0471 83.2555 15.268V17.2926C83.2555 17.5135 83.0764 17.6926 82.8555 17.6926H80.291ZM96.143 28.6963C95.0591 28.6963 94.0869 28.4998 93.2262 28.1068C92.3655 27.6975 91.6802 27.1489 91.1701 26.4612C90.7604 25.8908 90.5041 25.2698 90.4013 24.5981C90.3665 24.3708 90.5509 24.1769 90.7808 24.1769H93.374C93.5762 24.1769 93.7418 24.3299 93.801 24.5233C93.915 24.8952 94.1378 25.2137 94.4694 25.4787C94.9156 25.8226 95.4655 25.9945 96.1191 25.9945C96.7565 25.9945 97.2508 25.8635 97.6013 25.6015C97.968 25.3395 98.1512 25.0038 98.1512 24.5945C98.1512 24.1524 97.928 23.8249 97.4818 23.612C97.0515 23.3828 96.3581 23.1372 95.4018 22.8752C94.4136 22.6296 93.6007 22.3757 92.9632 22.1138C92.3416 21.8518 91.7998 21.4506 91.3375 20.9102C90.8913 20.3699 90.6681 19.6412 90.6681 18.7242C90.6681 17.971 90.8752 17.2833 91.2897 16.661C91.72 16.0388 92.3257 15.5476 93.1067 15.1873C93.9037 14.8271 94.8361 14.647 95.9039 14.647C97.4818 14.647 98.7409 15.0563 99.6813 15.8751C100.522 16.5926 101.025 17.5393 101.191 18.7152C101.223 18.9448 101.038 19.1418 100.807 19.1418H98.3979C98.1906 19.1418 98.0228 18.9816 97.9693 18.7814C97.8699 18.4085 97.6675 18.1029 97.3623 17.8646C96.9797 17.5371 96.4618 17.3733 95.8083 17.3733C95.2025 17.3733 94.7324 17.4879 94.3977 17.7172C94.0789 17.9464 93.9195 18.2657 93.9195 18.6751C93.9195 19.1336 94.1427 19.4856 94.589 19.7312C95.0352 19.9605 95.7285 20.1979 96.6689 20.4435C97.6252 20.6892 98.4142 20.943 99.0358 21.205C99.6574 21.467 100.191 21.8763 100.638 22.4331C101.1 22.9734 101.339 23.6939 101.355 24.5945C101.355 25.3805 101.14 26.0846 100.709 26.7068C100.295 27.329 99.6893 27.8203 98.8924 28.1805C98.1114 28.5244 97.1949 28.6963 96.143 28.6963ZM122.831 16.4891C122.683 16.4891 122.549 16.4066 122.473 16.2796C122.102 15.6614 121.616 15.1827 121.013 14.8435C120.344 14.4668 119.562 14.2785 118.67 14.2785C117.682 14.2785 116.805 14.5078 116.04 14.9663C115.275 15.4248 114.677 16.0797 114.247 16.9312C113.817 17.7827 113.602 18.7651 113.602 19.8786C113.602 21.0248 113.817 22.0237 114.247 22.8752C114.693 23.7266 115.307 24.3816 116.088 24.8401C116.869 25.2986 117.777 25.5278 118.813 25.5278C120.088 25.5278 121.132 25.184 121.945 24.4962C122.758 23.7921 123.292 22.8179 123.547 21.5734H118.209C117.988 21.5734 117.809 21.3943 117.809 21.1734V19.3453C117.809 19.1244 117.988 18.9453 118.209 18.9453H126.446C126.667 18.9453 126.846 19.1244 126.846 19.3453V21.9048C126.846 21.9294 126.844 21.954 126.84 21.9782C126.613 23.1596 126.138 24.2527 125.412 25.2577C124.679 26.2729 123.73 27.0916 122.567 27.7138C121.419 28.3197 120.128 28.6226 118.694 28.6226C117.084 28.6226 115.626 28.2542 114.319 27.5173C113.028 26.7641 112.008 25.7243 111.259 24.398C110.525 23.0717 110.159 21.5652 110.159 19.8786C110.159 18.1921 110.525 16.6856 111.259 15.3593C112.008 14.0166 113.028 12.9768 114.319 12.2399C115.626 11.4867 117.076 11.1101 118.67 11.1101C120.551 11.1101 122.184 11.5849 123.571 12.5347C124.815 13.3721 125.713 14.5192 126.264 15.9762C126.359 16.228 126.167 16.4891 125.898 16.4891H122.831ZM135.204 28.6963C133.929 28.6963 132.781 28.4098 131.761 27.8366C130.741 27.2472 129.936 26.4203 129.347 25.3559C128.773 24.2916 128.486 23.0635 128.486 21.6716C128.486 20.2798 128.781 19.0517 129.37 17.9874C129.976 16.923 130.797 16.1043 131.833 15.5312C132.869 14.9417 134.025 14.647 135.3 14.647C136.575 14.647 137.73 14.9417 138.766 15.5312C139.802 16.1043 140.615 16.923 141.205 17.9874C141.811 19.0517 142.113 20.2798 142.113 21.6716C142.113 23.0635 141.802 24.2916 141.181 25.3559C140.575 26.4203 139.746 27.2472 138.694 27.8366C137.659 28.4098 136.495 28.6963 135.204 28.6963ZM135.204 25.6998C135.81 25.6998 136.375 25.5524 136.901 25.2577C137.443 24.9465 137.874 24.488 138.192 23.8822C138.511 23.2763 138.671 22.5395 138.671 21.6716C138.671 20.378 138.336 19.3874 137.666 18.6997C137.013 17.9956 136.208 17.6435 135.252 17.6435C134.295 17.6435 133.491 17.9956 132.837 18.6997C132.2 19.3874 131.881 20.378 131.881 21.6716C131.881 22.9652 132.192 23.9641 132.813 24.6682C133.451 25.3559 134.248 25.6998 135.204 25.6998Z" fill="#0056F1"/>
<path fill-rule="evenodd" clip-rule="evenodd" d="M87.9547 16.1064C88.7253 15.2602 89.0501 13.2481 89.0449 12.1073C89.0689 11.345 88.5736 10.3806 87.1533 10.2533C86.0613 10.1554 85.7386 11.4227 85.7097 12.1309C85.6664 13.189 85.3753 14.5341 85.2376 15.2483C85.0999 15.9625 85.5879 16.6969 86.3265 16.8735C87.0647 17.0502 87.4109 16.7038 87.9547 16.1064Z" fill="#0056F1"/>
<path fill-rule="evenodd" clip-rule="evenodd" d="M34.7695 7.156C21.7266 6.56579 17.6974 7.63944 4.61727 6.74534C3.42408 6.63567 2.75952 7.17077 2.66504 8.38594C2.57116 9.60176 3.03374 10.1811 4.29259 10.2303C17.3912 11.1445 21.4383 10.0903 34.4998 10.7006C35.7443 10.7342 36.2185 9.61076 36.2185 8.70485C36.2185 7.79894 36.014 7.18963 34.7695 7.156Z" fill="#0056F1"/>
<path fill-rule="evenodd" clip-rule="evenodd" d="M32.9577 15.6397C19.9148 15.0495 17.6974 16.1231 4.61727 15.229C3.42409 15.1194 3.93193 14.7915 3.83745 16.0066C3.74357 17.2224 3.03375 17.7588 4.29259 17.8081C17.3912 18.7223 19.6265 17.6681 32.688 18.2784C33.9325 18.312 34.8597 18.0945 34.8597 17.1885C34.8597 16.2826 34.2022 15.6733 32.9577 15.6397Z" fill="#0056F1"/>
<path fill-rule="evenodd" clip-rule="evenodd" d="M35.6755 32.852C22.6325 32.2618 17.6974 33.3354 4.61732 32.4413C3.42414 32.3317 2.79437 32.8552 2.6999 34.0704C2.60602 35.2862 3.03379 35.8771 4.29264 35.9263C17.3913 36.8405 22.3443 35.7863 35.4058 36.3966C36.6503 36.4302 37.1245 35.4292 37.1245 34.5233C37.1245 33.6174 36.92 32.8856 35.6755 32.852Z" fill="#0056F1"/>
<path fill-rule="evenodd" clip-rule="evenodd" d="M35.8234 35.9974C35.874 22.9412 34.6347 20.7717 34.9873 7.66578C35.0476 6.46908 34.2659 6.03126 33.0479 5.9871C31.8292 5.94356 31.4891 6.22563 31.492 7.48543C31.12 20.6107 32.3406 22.7989 32.2707 35.8745C32.2886 37.1193 33.4151 37.1475 34.3203 37.1101C35.2254 37.0726 35.8413 37.2423 35.8234 35.9974Z" fill="#0056F1"/>
<path fill-rule="evenodd" clip-rule="evenodd" d="M7.28721 35.0916C7.33775 22.0354 6.41588 20.9056 6.76851 7.79974C6.82876 6.60304 6.18266 6.03125 4.96462 5.98709C3.74597 5.94355 3.24839 6.53992 3.25127 7.79973C2.87931 20.925 3.80435 21.8931 3.73448 34.9686C3.75232 36.2134 4.91317 37.0934 5.8183 37.0559C6.72344 37.0185 7.30505 36.3364 7.28721 35.0916Z" fill="#0056F1"/>
<path fill-rule="evenodd" clip-rule="evenodd" d="M13.2529 12.0542C13.7113 8.14124 13.5279 8.37309 13.3731 4.50967C13.3367 3.67808 12.5961 3.03214 11.732 3.12649C10.8568 3.16293 10.1789 3.88286 10.2049 4.65643C10.3584 8.40037 10.5528 8.04613 10.1052 11.7776C10.0057 12.5736 10.6325 13.3001 11.5028 13.3843C12.3725 13.4686 13.1528 12.8503 13.2529 12.0542Z" fill="#0056F1"/>
<path fill-rule="evenodd" clip-rule="evenodd" d="M10.6537 21.1871C10.6369 21.9537 10.4835 22.4305 10.6808 23.5541C10.7857 24.3095 11.4814 24.8743 12.2182 24.7617C12.9697 24.7015 13.4905 24.0256 13.3997 23.3227C13.264 22.2724 13.3771 22.0687 13.3925 21.3415C13.4079 20.6143 12.8031 19.9727 12.0452 19.923C11.2879 19.8732 10.6697 20.4598 10.6537 21.1871Z" fill="#00B374"/>
<path fill-rule="evenodd" clip-rule="evenodd" d="M18.1963 21.1871C18.1795 21.9537 18.026 22.4305 18.2234 23.5541C18.3282 24.3095 19.0239 24.8743 19.7608 24.7617C20.5122 24.7015 21.0331 24.0256 20.9423 23.3227C20.8066 22.2724 20.9196 22.0687 20.935 21.3415C20.9504 20.6143 20.3457 19.9727 19.5878 19.923C18.8305 19.8732 18.2122 20.4598 18.1963 21.1871Z" fill="#00B374"/>
<path fill-rule="evenodd" clip-rule="evenodd" d="M25.4434 21.1871C25.4266 21.9537 25.2732 22.4305 25.4705 23.5541C25.5754 24.3095 26.2711 24.8743 27.0079 24.7617C27.7594 24.7015 28.2802 24.0256 28.1894 23.3227C28.0537 22.2724 28.1668 22.0687 28.1822 21.3415C28.1976 20.6143 27.5928 19.9727 26.8349 19.923C26.0776 19.8732 25.4594 20.4598 25.4434 21.1871Z" fill="#0056F1"/>
<path fill-rule="evenodd" clip-rule="evenodd" d="M10.6537 28.049C10.6369 28.8155 10.4835 29.2923 10.6808 30.4159C10.7857 31.1714 11.4814 31.7361 12.2182 31.6236C12.9697 31.5634 13.4905 30.8875 13.3997 30.1845C13.264 29.1342 13.3771 28.9305 13.3925 28.2033C13.4079 27.4761 12.8031 26.8345 12.0452 26.7848C11.2879 26.7351 10.6697 27.3216 10.6537 28.049Z" fill="#0056F1"/>
<path fill-rule="evenodd" clip-rule="evenodd" d="M18.1963 28.049C18.1795 28.8155 18.026 29.2923 18.2234 30.4159C18.3282 31.1714 19.0239 31.7361 19.7608 31.6236C20.5122 31.5634 21.0331 30.8875 20.9423 30.1845C20.8066 29.1342 20.9196 28.9305 20.935 28.2033C20.9504 27.4761 20.3457 26.8345 19.5878 26.7848C18.8305 26.7351 18.2122 27.3216 18.1963 28.049Z" fill="#0056F1"/>
<path fill-rule="evenodd" clip-rule="evenodd" d="M25.4434 28.049C25.4266 28.8155 25.2732 29.2923 25.4705 30.4159C25.5754 31.1714 26.2711 31.7361 27.0079 31.6236C27.7594 31.5634 28.2802 30.8875 28.1894 30.1845C28.0537 29.1342 28.1668 28.9305 28.1822 28.2033C28.1976 27.4761 27.5928 26.8345 26.8349 26.7848C26.0776 26.7351 25.4594 27.3216 25.4434 28.049Z" fill="#0056F1"/>
<path fill-rule="evenodd" clip-rule="evenodd" d="M27.7465 12.0488C28.2015 8.11646 28.0183 8.34932 27.8599 4.46627C27.8229 3.63045 26.9776 3.01603 26.1133 3.11008C25.2381 3.14591 24.6647 3.83342 24.6914 4.61092C24.8483 8.37388 25.0424 8.01803 24.598 11.7679C24.4993 12.5678 25.1269 13.2986 25.9974 13.384C26.8672 13.4695 27.6471 12.8488 27.7465 12.0488Z" fill="#0056F1"/>
</g>
<defs>
<clipPath id="clip0_2_25">
<rect width="144" height="40" fill="white"/>
</clipPath>
</defs>
</svg>
